<svg viewBox="0 0 727.55 483.38" xmlns="http://www.w3.org/2000/svg"><path d="m152.29 480.83c.97-1.83 2.39-3.33 3.18-3.33 2.1 0 1.78.71-1.75 3.84-3.16 2.81-3.16 2.8-1.43-.51zm5.79-.66c2.93-2.93 2.1-5.42-1.55-4.64-3.09.66-3.14.56-.74-1.41 1.42-1.17 2.59-2.78 2.59-3.58 0-.79 1.75-2.24 3.89-3.22 2.14-.97 3.5-2.16 3.02-2.64-.47-.48.58-2.04 2.36-3.48 3-2.43 3.1-3.08 1.44-9.8-2.39-9.73-2.63-25.03-.51-32.93 1.5-5.6 1.4-6.87-.74-9.24-2.02-2.23-2.32-4.56-1.6-12.34.94-9.99 6.17-24.48 8.85-24.48.85 0 1.17-.37.71-.83-1.12-1.13 6.65-8.86 8.36-8.31.75.23.55-.55-.44-1.75-1.48-1.78-.78-3.19 3.86-7.85 3.11-3.13 8.64-8.19 12.28-11.25l6.62-5.57-5.18 1.13c-2.85.62-12.58 1.11-21.63 1.08-15.91-.04-16.64-.18-22.19-4.41-5.94-4.53-7.95-4.77-17.09-1.99-3.25.99-8.73 1.23-13.75.6-6.88-.86-9.37-2.02-14.2-6.62-5.35-5.09-5.85-6.22-5.72-12.84.15-7.19.17-7.21 1.7-2.45 1.8 5.63 4.05 5.98 16.02 2.43 12.69-3.76 18.06-7.11 33.91-21.13 20.96-18.54 40.2-27.83 62.94-30.39 25.8-2.91 60.22-17.72 71.84-30.92 3.36-3.82 5.47-6.95 4.69-6.95s-2.25 1-3.27 2.22c-1.01 1.22-2.92 2.25-4.25 2.28-1.32.03-6.07 2.3-10.55 5.04-10.78 6.61-23.72 13.05-35.52 17.7-9.71 3.83-34.6 8.29-46.25 8.29-8.88 0-28.37 3.86-38.86 7.69-21.52 7.87-43.89 23.57-48.12 33.77-1.02 2.49-2.16 4.23-2.51 3.87-1.26-1.26 5.35-12.13 10.69-17.55l5.44-5.52-9.53 4.32c-10.46 4.74-31.198 8.93-44.256 8.94-22.052.01-38.101-10.51-44.207-28.98-1.864-5.63-5.341-13.73-7.728-17.98-4.118-7.34-4.715-7.79-11.62-8.7-4.0033-.53-7.279-1.55-7.279-2.26-.00000021-1.69 2.722-1.62 11.622.28 7.891 1.7 11.214 4.43 12.469 10.27 4.219 19.64 9.962 30.33 19.774 36.83 5.429 3.6 7.317 4.11 11.565 3.16 5.652-1.28 13.813-5.93 17.46-9.96 2.271-2.51 1.822-2.64-9.193-2.64-12.828 0-17.812-2.55-17.812-9.11 0-4.25-.538-4.28-6.432-.39l-4.669 3.08 4.44-3.85c16.822-14.61 39.947-19.04 64.886-12.43 15.21 4.03 38.48 4.62 43.49 1.11 3.08-2.17 2.42-2.31-10.36-2.31-7.5-.01-21.88-1.22-31.95-2.69-22.433-3.3-42.425-2.55-52.615 1.96-8.471 3.74-8.896 2.82-.639-1.39 3.847-1.97 10.637-3.53 18.132-4.19 11.729-1.03 18.923-.65 51.982 2.74 11.33 1.16 20.16 1.22 28.86.21 11.91-1.39 29.04-5.59 27.81-6.82-1.27-1.27-11.31-.92-18.96.67-8.96 1.86-41.81 2.35-57.42.86-5.46-.53-14.779-1.98-20.706-3.23-14.104-2.99-27.316-1.9-38.362 3.16-4.679 2.14-9.858 5.02-11.508 6.4-2.255 1.89-2.148 1.55.428-1.38 1.885-2.13 8.879-6.13 15.541-8.87l12.114-4.98 24.423.24c13.432.13 38.41.47 55.51.74 26.16.42 32.37.1 39.22-2.03 7.3-2.27 21.3-9.96 20.18-11.09-.25-.24-3.72.56-7.72 1.8-11.56 3.55-26.97 6.34-40.58 7.34-14.96 1.1-43.6-1.22-54.283-4.39-8.424-2.5-35.446-3.59-47.134-1.89-8.095 1.17-24.27 6.16-30.617 9.44-2.199 1.13-4.863 2.03-5.921 2-3.8005-.14 17.549-9.11 28.286-11.9 15.891-4.11 42.999-3.94 58.729.37 10.02 2.75 15.56 3.21 38.36 3.2 25.71-.02 27.34-.21 46.82-5.28 18.06-4.7 46.97-16.62 45.02-18.57-1.34-1.34-29.93 2.83-39.3 5.74-5.29 1.64-13.95 3.36-19.24 3.82-5.29.47-13.43 2.1-18.09 3.62-11.9 3.91-23.1 3.68-29.44-.62-16.77-11.35-33.696-12.02-61.986-2.46-17.521 5.92-18.948 6.16-32.869 5.6-13.292-.53-14.885-.92-18.39-4.42-3.081-3.08-3.6467-4.71-2.8674-8.26.5339-2.43 2.2954-5.84 3.9154-7.58 3.676-3.95 2.805-3.96-4.7746-.1-8.5856 4.38-8.6093 2.59-.0385-2.91 11.142-7.15 34.554-11.97 57.967-11.94 10.177.01 21.167.65 24.423 1.43 3.257.78 8.918 1.82 12.58 2.32 7.46 1.02 25.05 4.21 36.27 6.58 25.07 5.31 76.98 6.05 106.36 1.51 15.7-2.42 16.59-3.61 6.2-8.21-11.39-5.05-21.15-12.89-34.56-27.75-6.23-6.9-7.7-9.53-7.7-13.78 0-2.89-.6-4.88-1.35-4.42-.74.46-4.2-1.83-7.7-5.09s-5.73-5.93-4.97-5.93c.77 0-3.26-2.69-8.94-5.98-8.9-5.15-32.01-26.291-32.7-29.913-.12-.61-.3-2.762-.4-4.782-.13-2.604-1.26-3.942-3.88-4.601-3.55-.89-5.25-3.568-2.27-3.568 3.93 0-1.15-4.743-7.5-6.998-4.56-1.622-7.1-3.35-6.87-4.691.22-1.289-1.54-2.626-4.46-3.401-2.64-.702-4.81-1.969-4.81-2.814 0-.863 1.3-1.127 2.95-.601 2.17.688 2.74.377 2.15-1.169-.92-2.4-9.28-5.289-16.93-5.85-3.55-.261-5.32-1.186-5.65-2.969-.33-1.698.43-2.593 2.2-2.596 1.9-.004 1.27-.882-2.14-2.961-2.67-1.625-6.499-2.954-8.515-2.954-2.015 0-3.664-.551-3.664-1.224s2.164-.979 4.81-.68l4.809.544-5.179-2.39c-2.849-1.314-7.342-2.507-9.984-2.65-6.674-.363-6.062-2.471.733-2.528 5.184-.044 5.362-.19 2.698-2.205-1.568-1.187-2.369-2.641-1.779-3.231 1.094-1.095 1.517-.865 9.831 5.335l4.76 3.554-1.86-3.554c-1.82-3.462-1.79-3.486 1.05-.962 1.61 1.424 3.58 2.59 4.38 2.59s2.93 1.998 4.74 4.44c3.56 4.813 6.15 5.75 6.15 2.221 0-5.486 4.11-.867 9.87 11.101 2.44 5.075 3.24 5.868 3.33 3.33.17-4.478 2.8-4.238 3.96.36.5 2.03 1.51 3.327 2.23 2.883.71-.443.92.176.46 1.377-.49 1.297.42 2.853 2.24 3.83 2.65 1.415 3.08 1.224 3.08-1.367 0-6.028 2.6-2.818 3.56 4.389.54 4.07 1.62 7.4 2.41 7.4.78 0 1.43-.999 1.43-2.22 0-4.691 2.62-1.935 3.53 3.701.63 3.934 1.71 5.92 3.22 5.92 1.26 0 4.75 1.268 7.76 2.817 3.01 1.55 8.07 3.917 11.24 5.261 11.27 4.776 31.69 25.156 29.89 29.846-.91 2.38 1.51 4.16 2.81 2.06 2.48-4 11.26.45 28.86 14.61 3.65 2.95 7.65 6.16 8.88 7.15 8.51 6.84 20.74 18.96 20.74 20.57 0 1.07 2.63 2.65 5.85 3.52 7.13 1.92 10.43 4.99 10.43 9.7 0 2.76.57 3.33 2.59 2.56 1.43-.54 3.59-1.98 4.81-3.2 1.98-1.97 1.94-2.11-.37-1.24-3.82 1.45-3.28-2.69.74-5.63 3.29-2.4 3.26-2.42-1.69-1.4-4.6.95-4.96.77-4.21-2.09.58-2.23.11-3.15-1.64-3.23-1.91-.08-1.8-.36.51-1.29 1.63-.66 5.03-.87 7.55-.48 3.32.51 4.85.05 5.51-1.67.73-1.9-.12-2.38-4.31-2.38-5.02 0-5.19-.17-4.6-4.81.33-2.64 1.37-4.64 2.3-4.44.93.21 1.69-.96 1.69-2.59 0-1.62-.66-2.96-1.48-2.96-.81 0-1.48-.71-1.48-1.58s1.25-1.18 2.79-.69c2.27.72 2.97-.08 3.77-4.34.54-2.88 1.65-5.23 2.48-5.23.82 0 1.06-.7.53-1.56s-.54-3.28-.01-5.37l.95-3.8 3.63 3.4c3.07 2.89 3.63 3.02 3.63.88 0-3.45 4.47-4.96 6.1-2.06 1.65 2.95 7.35 1.71 6.18-1.34-.45-1.19-1.74-1.81-2.85-1.38-1.12.43-2.03.44-2.03.04 0-.41 1.49-1.35 3.33-2.08 2.68-1.08 2.81-1.36.65-1.44-1.51-.05-2.25-.78-1.7-1.67.54-.88-.47-1.96-2.26-2.43-2.14-.56-2.64-1.21-1.47-1.93 1.3-.81 1.1-2.09-.79-4.98-1.4-2.14-2.69-5.72-2.86-7.96-.17-2.233-1.18-5.864-2.25-8.066-4.27-8.783 5.62-18.939 18.44-18.939 3.57 0 6.95-.734 7.5-1.631.56-.897 3.43-2.662 6.38-3.922l5.37-2.29-4.17-1.159c-2.3-.637-7.63-3.766-11.85-6.954-4.23-3.189-9.87-6.93-12.55-8.314s-6-4.375-7.39-6.646-3.28-3.872-4.21-3.559c-1.65.556-8.86-9.497-7.67-10.689 1.63-1.631 6.91 1.464 9.25 5.42 1.45 2.448 6.18 6.723 10.52 9.499s8.31 5.721 8.82 6.545 2.16 1.497 3.68 1.497 5.69 2.234 9.26 4.964c5.11 3.898 7.52 4.816 11.22 4.273 3.78-.556 4.71-1.386 4.71-4.224 0-1.943.83-3.543 1.85-3.555 1.31-.016 1.24-.409-.24-1.344-1.76-1.116-1.78-2.086-.12-6.268 4.73-11.9 7.81-10.387 8.33 4.094.29 7.97.92 10.187 3.41 11.93 2.59 1.815 3.05 1.825 3.05.062 0-3.468 9.44-12.041 16.39-14.895 3.61-1.478 9.77-4.365 13.7-6.414 4.85-2.525 8.66-3.504 11.84-3.038 3.33.489 5.97-.274 9.13-2.638 5.27-3.939 11.11-5.974 11.11-3.87 0 3.827-22.05 13.522-30.76 13.522-2.22 0-7.21 3.264-13.42 8.784-5.44 4.832-11.87 9.546-14.31 10.477l-4.42 1.692 4.44 2.012c2.44 1.106 6.01 3.27 7.92 4.809 2.8 2.259 4.78 2.599 10.26 1.767 7.55-1.147 15.33.478 18.78 3.925 3.54 3.548 2.89 11.718-1.21 14.939-3.14 2.475-7.4 11.614-6.51 13.974.2.53-.77 2.22-2.17 3.76-1.57 1.73-2.21 4.05-1.68 6.07 1.26 4.82 3.01 4 4.12-1.91.6-3.2 2.41-6.13 4.7-7.63 3.93-2.58 9.29-12.086 12.39-21.964 1.1-3.514 4.34-8.176 7.97-11.469 6.67-6.052 9.78-6.984 9.89-2.963.03 1.556 1.21.417 2.94-2.853 1.58-2.994 8.59-10.321 15.58-16.282 12.88-10.994 16.86-13.683 14.68-9.92-.7 1.206-.63 1.537.17.809.74-.678 1.34-1.991 1.34-2.917 0-2.14 6.41-5.42 10.64-5.449 1.78-.012 4.94-.671 7.03-1.465s3.8-.857 3.8-.139c0 1.513 5.13.595 10.08-1.803 2.62-1.265 3.7-1.22 4.57.193.89 1.433 1.58 1.334 3.05-.438 2.45-2.95 5.42-2.927 6.56.051 1.32 3.426 1.21 3.577-2.43 3.602-2.44.017-2.79.364-1.32 1.299 2.19 1.388-3.2 2.667-17.25 4.088-6.94.702-7.61 1.062-5.92 3.149 1.67 2.048 1.53 2.199-1.04 1.149-7.93-3.233-8.7-2.86-18.84 9.158-10.69 12.667-22.41 24.059-24.75 24.059-.81 0-1.09.976-.63 2.168 2.36 6.165-23.54 42.267-29.93 41.707-1.3-.12-3.47 1.46-4.8 3.49-2.32 3.54-2.31 3.61.28 1.56 2.43-1.93 2.65-1.86 2.2.74-.36 2.04.29 2.82 2.19 2.66 1.93-.16 2.43.47 1.76 2.22-.74 1.96-.56 2.07.94.59 2.6-2.58 4.98-2.32 2.8.31-.98 1.18-1.39 2.8-.9 3.59.5.8.22 1.87-.61 2.38-2.7 1.67-1.59 5.19 1.64 5.19 2.56 0 2.82-.39 1.38-2.12-1.31-1.58-1.35-2.92-.13-5.18 1.88-3.52 3.74-4.15 2.47-.84-.47 1.22-.22 2.22.54 2.22s.95 1.17.42 2.59c-.86 2.29-.68 2.35 1.57.52 2.34-1.9 2.42-1.74 1.02 1.95-2.08 5.46-1.99 5.65 1.63 3.72 2.95-1.58 3.09-1.42 2.13 2.39-.68 2.72-.37 4.5.91 5.3 1.59.98 1.56 1.82-.15 4.58-1.84 2.98-1.83 3.16.14 1.54 1.22-1.01 2.61-1.46 3.07-.99 1.55 1.55 17.82-9.95 26.11-18.44 4.48-4.58 8.62-8.34 9.21-8.34.58 0 1.61-.6 2.29-1.35.72-.78.46-.9-.62-.28-2.82 1.62-2.2-1.29.86-4.06 3.46-3.13 8.6-3.15 10.34-.04.92 1.65 1.67 1.88 2.38.74.57-.92 2.21-1.67 3.65-1.67s4.86-3.12 7.6-6.93c6.76-9.41 24.79-28.14 30.47-31.651 3.65-2.258 5.16-4.765 7.16-11.861 1.83-6.55 3.09-8.778 4.62-8.193 1.39.537 2.37-.534 2.92-3.214 2.05-9.937 3.08-12.711 4.93-13.328 1.41-.469 1.71.214 1.03 2.35-.53 1.656-.34 3.395.42 3.864s2.26-2.108 3.33-5.726c1.53-5.184 2.35-6.236 3.89-4.957 1.54 1.275 2.65-.01 5.18-5.991 1.76-4.187 4.06-7.613 5.09-7.613s2.58-1.332 3.46-2.96c1.91-3.572 3.98-3.699 10.14-.624 4.6 2.29 5.08 5.064.88 5.064-1.17 0-3.9 1.999-6.08 4.441-2.17 2.442-4.83 4.44-5.9 4.44-1.06 0-3.07 1.832-4.46 4.071-1.38 2.239-4.86 6.568-7.73 9.621-5.28 5.614-5.3 6.813-.08 4.018 1.97-1.056 2.86-1.056 2.86 0 0 .843-1 1.533-2.22 1.533s-2.22.666-2.22 1.48-1.23 1.48-2.73 1.48c-3.66 0-8.06 4.9-6.12 6.832.96.963-.31 3.177-3.73 6.487-3.88 3.769-5.18 6.259-5.18 9.973 0 6.382-4.08 14.274-12.45 24.084-3.68 4.31-6.42 8.27-6.09 8.81.84 1.36-7.28 8.82-15.37 14.13-6.03 3.95-6.84 5.14-7.24 10.54-.38 5.22-1.96 7.73-11.1 17.65-9.19 9.98-12.52 12.45-24.26 18.01-9.43 4.46-15.2 6.33-18.82 6.09-11.4-.77-5.79 1.38 12.09 4.62 31.87 5.79 33.99 5.93 108.88 7.5 40.04.84 76.12 2.13 80.19 2.88 4.07.74 10.48 1.39 14.23 1.44 16.23.21 51.89 13.62 59.94 22.54 6.83 7.56 8.39 11.98 6.6 18.62-1.75 6.53-7.34 14.2-12.25 16.82-1.63.87-6.94 2.15-11.81 2.84-8.2 1.15-9.47 1.88-17.24 9.85-4.62 4.74-10.2 10.08-12.4 11.88-10.94 8.92-25.89 12.98-44.28 12.01-15.29-.81-23.42-4.28-42.16-17.98-17.04-12.46-31.46-19.04-54.31-24.77-21.39-5.36-38.25-10.57-51.04-15.76-16.83-6.83-11.18-2.47 6.66 5.14 28.42 12.12 37.33 15.28 75.17 26.61 15.76 4.72 35.11 19.01 40.78 30.13 3.46 6.78 3.76 17.2.62 21.68-1.26 1.79-4.79 4-7.87 4.92-5.03 1.51-6.69 1.21-16.6-3.02-12.72-5.42-16.74-5.21-25.98 1.41-11.04 7.91-27.44 8.26-36.09.77-5.23-4.53-13.25-7.79-21.5-8.73-4.86-.56-10.84-1.37-13.29-1.8-2.67-.48.57 1.76 8.13 5.61 8.7 4.43 16.09 9.75 24.05 17.32 6.32 6.01 11.49 11.79 11.49 12.85 0 1.05 1.54 3.13 3.43 4.61 5.09 4.01 7.99 9.09 12.17 21.31 4.78 13.98 7.34 41.47 5.16 55.4-1.35 8.59.25 14.02 4.44 15.12 1.62.42 3.35 2.36 3.84 4.29.54 2.16 1.97 3.53 3.68 3.53 1.54 0 2.8 1 2.8 2.22 0 1.24 1.32 2.22 3.01 2.22 3.9 0 5.3 3.74 2.47 6.58-1.97 1.96-2.47 1.84-4.52-1.08-1.9-2.7-2.56-2.91-3.72-1.18-1.14 1.68-1.96 1.21-4.14-2.35-1.49-2.45-3.48-4.2-4.4-3.88-.93.31-3.15-2.46-4.94-6.16-1.8-3.7-3.94-6.73-4.78-6.73-.89 0-1.16-1.96-.65-4.81.47-2.65.99-12.15 1.14-21.12l.28-16.31-4.73-5.15c-3.01-3.27-5.87-8.94-7.84-15.52-1.71-5.7-3.6-11.03-4.2-11.84-.6-.82-.56-2.81.1-4.44 2.4-5.96 1.76-6.65-5.26-5.69-4.09.56-6.66.33-6.66-.58 0-.82-2.5-1.9-5.55-2.39-3.06-.49-11.52-4.55-18.81-9.01s-13.54-7.84-13.88-7.5c-.33.34-.09 1.81.55 3.27.88 1.99 1.96 10.8 1.33 10.8-.05 0-2.34-2.99-5.07-6.65-5.54-7.39-7.39-7.86-3.83-.96 1.29 2.47 2.31 5.03 2.27 5.68-.08 1.78-4.85-7.36-5.17-9.91-.53-4.24-2.49-7.38-4.02-6.44-1 .63-1.2-.41-.55-2.97.7-2.79.44-3.83-.9-3.56-1.03.21-1.71-.45-1.51-1.47.21-1.01-.35-1.85-1.22-1.85-.92 0-1.39 2.06-1.11 4.81.26 2.65-.18 5.03-1 5.29-.81.26-1.98 1.38-2.6 2.48-.69 1.24-3.05 1.82-6.19 1.53-3.48-.32-5.34.23-5.93 1.76-.65 1.69-1.34 1.83-2.86.56-1.51-1.25-2.42-1.16-3.67.34-.92 1.11-1.23 2.45-.69 2.98.53.54.15.98-.85.98-1.16 0-1.65-1.74-1.35-4.81.36-3.77 1.06-4.71 3.24-4.34 2.31.4 2.61-.16 1.82-3.33-1.23-4.87 1.06-4.95 3.27-.11 2.23 4.9 4.67 4.71 4.88-.37.11-2.65.41-3.14.87-1.39.38 1.47 1.43 2.42 2.33 2.12 2.53-.84 3.93-8 3.58-18.24-.4-11.72.95-10.77 1.94 1.35.68 8.4.9 8.86 2.67 5.75 1.06-1.86 2.03-6.02 2.16-9.25s.79-5.87 1.48-5.87.8-.74.24-1.64c-.56-.91-.1-2.3 1.02-3.1 1.63-1.16 1.55-1.3-.37-.69-1.32.42-3.19-.02-4.16-.97-1.34-1.34-1.52-1.05-.8 1.22.94 2.92.92 2.92-1.39.09-1.29-1.58-2.34-3.9-2.34-5.14 0-1.25-4-6.07-8.88-10.72-8.76-8.34-11.15-9.05-6.49-1.94 1.31 2.01 3.24 3.65 4.27 3.65s2.19 1.66 2.58 3.7.47 3.7.18 3.7c-1.25 0-6.98-6.59-8.85-10.17-2.01-3.84-2.03-3.81-2.04 2.56-.01 5.12.44 6.27 2.21 5.6 1.22-.47 2.22-.21 2.22.58 0 2.51-4.5 1.53-5.33-1.16-1.41-4.54-2.97-6.84-5.14-7.55-1.63-.54-1.74-.23-.46 1.39 1.79 2.27 2.21 11.71.52 11.71-2.53 0-8.83-6.41-8.83-8.99 0-1.57-.65-2.85-1.45-2.85-.92 0-.94 1.32-.05 3.65.91 2.41.86 3.97-.17 4.61-.91.56-1.17 3.03-.62 5.97.58 3.1.35 5.01-.61 5.01-.85 0-1.54-2.62-1.54-5.83s-.62-6.22-1.37-6.68c-.79-.49-1.1 1.38-.73 4.35.68 5.46-.78 6.65-3.75 3.08-1.28-1.55-1.33-2.93-.17-5.1 1.07-1.99 1.09-3.26.08-3.89-.83-.52-1.16-1.51-.72-2.21.43-.7.15-1.67-.61-2.14-.81-.5-1.16 1.08-.82 3.73.5 4.01.28 4.36-1.7 2.71-1.87-1.55-2.52-1.5-3.62.24-2.07 3.26-1.7 4.27 2.28 6.08 4.4 2.01 6.13 6.47 3.65 9.45-2.36 2.85-6.36-.18-5.35-4.05.39-1.48 0-3.13-.86-3.67-1.06-.65-1.28.83-.68 4.54.64 3.93.38 5.34-.88 4.92-1.15-.39-1.79-4.27-1.82-10.98-.04-8.32.39-10.36 2.16-10.24 1.22.08 2.43-.9 2.7-2.19.36-1.72-.67-2.35-3.85-2.35h-4.34l.24 12.22c.14 6.72-.22 11.92-.79 11.57s-1.34.54-1.71 1.97c-.54 2.06-.72 1.94-.85-.59-.1-1.77.66-3.49 1.67-3.83 1.48-.5 1.48-1.08-.01-2.89-1.03-1.25-1.7-3.52-1.48-5.05.21-1.54-.14-2.79-.78-2.79s-1.8-1-2.57-2.22c-1.05-1.66-1.45-.92-1.6 2.96-.25 6.47-.29 6.08 1.07 9.62 1.07 2.78.98 2.81-1.37.48-1.38-1.37-2.56-3.37-2.63-4.44-.06-1.08-1.03.04-2.15 2.48l-2.03 4.44-.12-4.44c-.11-4.39-3.7-10.87-5.2-9.37-.42.42.24 3.62 1.47 7.11 2.51 7.13 2.9 10.79.78 7.44-.77-1.22-1.92-1.89-2.56-1.48s-1.42-.92-1.72-2.96c-.52-3.43-.64-3.49-1.75-.74-1.15 2.86-1.19 2.85-1.29-.25-.06-1.76.72-3.49 1.74-3.85 1.36-.47 1.16-1.43-.74-3.57-3-3.39-3.33-8.2-.85-12.18 1.41-2.25 1.25-3.27-.81-5.33-1.4-1.41-2.92-2.18-3.38-1.72-1.14 1.13-1.88 19.6-.94 23.21.42 1.6 1.44 2.5 2.27 1.99s1.2-.01.82 1.13c-.38 1.13-1.3 1.95-2.04 1.82-.75-.12-1.85.54-2.45 1.48-.65 1.02-1.09.37-1.11-1.62-.01-1.83-.69-3.33-1.5-3.33s-1.5 1.5-1.53 3.33c-.06 3.8-5.74 16.39-5.82 12.88-.03-1.26.64-2.98 1.47-3.82 1.05-1.04.86-2.81-.59-5.6-1.96-3.78-2.24-3.88-3.7-1.37-1.39 2.39-1.61 2.18-1.85-1.72-.43-7.09.31-13.21 1.78-14.73.84-.86 1.4.28 1.46 2.96.06 2.41.68 5.7 1.38 7.33 1.1 2.57 1.3 2.37 1.48-1.48s.38-4.05 1.48-1.48c1.11 2.59 1.29 2.63 1.38.32.05-1.45-.9-3.02-2.12-3.48-2.37-.92-3.11-4.98-.9-4.98.73 0 1.29-1.5 1.24-3.33-.04-1.83.43-4.49 1.06-5.91.8-1.83.33-2.87-1.62-3.59-1.51-.56-3.28-1.73-3.95-2.6-.67-.89-.82-.22-.33 1.53 1.07 3.86-.38 7.98-2.82 7.98-1.08 0-1.91 2.25-2.03 5.54-.11 3.05-.75 5.72-1.42 5.94-.67.23-1.05 2.89-.84 5.93.35 5.32.32 5.36-.87 1.09-.68-2.44-1.31-3.68-1.41-2.76-.23 2.22-5.41 3.51-7.45 1.85-1.07-.88-1.15-.76-.23.36.84 1.03.83 3.08-.03 5.35-1.15 3.02-1 3.53.85 2.82 2.86-1.1 2.87.11.03 2.95-1.22 1.23-2.22 3.47-2.22 4.99s-.67 3.18-1.48 3.68c-.85.53-1.48-.83-1.48-3.2v-4.12l-2.31 3.29c-3.71 5.3-5.28 3.78-1.94-1.88 1.68-2.85 3.65-4.82 4.38-4.37.72.45.92-.22.43-1.48-.48-1.26-.14-2.3.76-2.3s1.64-.66 1.64-1.48c0-.81-1-1.48-2.22-1.48s-2.22.96-2.22 2.13c0 1.18-.7 2.57-1.54 3.09-1 .62-1.2-.39-.58-2.87 1.11-4.43-.35-4.97-3.31-1.24-1.93 2.44-2.19 2.39-4.41-.74-2.73-3.85-7.25-4.61-5.86-.99.49 1.29.9 2.66.9 3.05s.66.3 1.48-.21c2.61-1.62 1.57 1.68-1.38 4.35-2.75 2.49-2.83 2.46-2.04-.88.81-3.41.78-3.42-1.53-.51-2.32 2.91-2.36 2.89-2.41-.81-.02-2.08.74-4.56 1.71-5.53 3.94-3.94-.13-2.93-4.73 1.17-2.73 2.44-5.23 4.43-5.55 4.43-.33 0-.12-2.15.46-4.78.94-4.3.81-4.58-1.36-2.78-1.33 1.1-2.47 3.09-2.53 4.41-.08 1.53-.39 1.74-.87.56-.41-1.01.7-4.18 2.46-7.03 3.43-5.55 5.33-6.82 3.86-2.59-.49 1.43.77.59 2.8-1.85s3.68-5.11 3.66-5.92c-.01-.81-1.32.18-2.92 2.22-3.26 4.18-3.76 3.39-1.29-2.04 1.42-3.12 2.09-3.41 4.43-1.95s3.42.99 7.13-3.06c4.98-5.46 6.03-5.9 5.05-2.14-.38 1.45-2.14 3.29-3.91 4.07s-3.95 2.91-4.85 4.74-1.94 3.03-2.3 2.66c-.36-.36-.66.72-.66 2.42 0 2.48 1.25 1.68 6.49-4.14l6.48-7.22-5.42 7.37c-3.55 4.83-4.78 7.58-3.58 7.98 1.01.34 3.13-.98 4.72-2.93l2.89-3.54-1.04 4.81c-.88 4.01-.66 4.66 1.29 3.91 1.37-.52 2.34-2.63 2.34-5.09 0-2.31.66-4.61 1.48-5.11.81-.5 1.48-1.64 1.48-2.54 0-.89-1.45-.35-3.21 1.2-3.17 2.78-3.2 2.78-2.05-.14.63-1.63 1.41-4.96 1.73-7.4.88-6.89 1.85-8.53 4.46-7.53 1.83.7 2.2.22 1.6-2.07-.43-1.64-.25-2.66.4-2.26.64.4 1.49-.96 1.88-3.01.68-3.57.59-3.62-2.05-1.24-1.52 1.38-2.76 2.05-2.76 1.48 0-.56-1.35-.29-3.01.59-1.65.88-2.54 2.34-1.99 3.24.61.99.34 1.22-.7.58-1.08-.67-1.7.08-1.7 2.04 0 1.7-1 3.47-2.22 3.94-1.23.47-2.23 1.95-2.25 3.29-.01 1.89-.3 1.99-1.27.46-1.01-1.59-1.43-1.52-2.15.37-.5 1.28-1.76 2.33-2.8 2.32-1.35-.02-1.26-.42.28-1.4 1.2-.76 1.78-1.78 1.3-2.26-1.2-1.2-8.66 7.81-8.66 10.45 0 1.16-1.33 2.11-2.96 2.11-1.62 0-2.96.71-2.96 1.57s-.59 1.2-1.32.75c-1.34-.83-3.14 2.4-3.09 5.57.01.99.63.79 1.45-.49 1.16-1.79 1.44-1.58 1.46 1.11.02 3.55-1 4.05-4.16 2.04-3.08-1.95 1.6-12.03 5.59-12.03 1.67 0 3.03-.95 3.03-2.11s1.8-4.32 4-7.03l4-4.92-4.35 3.7c-2.4 2.03-4.86 4.37-5.46 5.18-.68.92-1.11.78-1.12-.37-.02-1.02 1.14-3.05 2.56-4.5 5.41-5.54 6.68-8.24 1.72-3.64-6.24 5.79-8.65 6.3-4.43.93 1.67-2.13 2.68-4.46 2.23-5.19-.45-.72.61-3.31 2.34-5.74 1.74-2.44 2.44-4.43 1.57-4.43-.86 0-1.58.7-1.58 1.56 0 .87-.68 1.15-1.51.63-.84-.51-1.34-.05-1.11 1.03.24 1.18-.77 1.83-2.56 1.63-1.63-.18-2.12.04-1.11.49 2.8 1.25 2.22 3.1-1.26 4.01-1.71.44-2.68 1.5-2.16 2.34s-.4 4.16-2.04 7.38c-2.09 4.1-2.47 6.04-1.25 6.44 1.31.44 1.34 1.85.13 5.67-1.21 3.77-1.66 4.24-1.78 1.84-.18-3.83-2.45-5.67-3.97-3.21-.67 1.08-.43 1.33.64.67 1.21-.75 1.51.48 1.03 4.25-.38 2.92-1.05 5.9-1.5 6.63-.44.72-.16 3.03.64 5.14.8 2.1.87 3.82.16 3.82-1.77 0-4.87-9.21-3.46-10.26.62-.46 1.32-1.99 1.56-3.41.3-1.78-.26-2.29-1.85-1.69-1.25.48-2.28 1.9-2.28 3.15 0 1.24-1.1 3.07-2.45 4.05-1.51 1.11-1.99 2.53-1.25 3.72.93 1.5 1.66 1.3 3.31-.88 2.01-2.68 2.09-2.64 1.83.88-.58 7.53-.09 9.61 1.82 7.7.97-.98 2.44-1.78 3.25-1.78.83 0 .69.79-.29 1.78-2.57 2.57-2.19 4.85.44 2.66 2.3-1.9 3.01-.42 1.09 2.27-1.49 2.1-5.62 1.72-5.16-.48.2-.98-.29-1.79-1.11-1.79-.81 0-1.48-1.33-1.48-2.96 0-5.49-2.65-3.01-4.35 4.09-.93 3.87-2.38 8.03-3.21 9.25-1.15 1.67-1.27 1.35-.52-1.31 1.9-6.72 2.27-15.69.58-14-.87.87-1.77 2.51-2 3.63-.22 1.12-1.18 3.93-2.12 6.24-.95 2.31-1.28 4.91-.74 5.78.56.91.28 1.15-.66.57-1.5-.92-3.07 4.57-3.12 10.92-.01 1.22-.6 4.92-1.31 8.22-1.26 5.86-.2 12.95 1.52 10.17.47-.77 1.33-3.88 1.9-6.92s1.63-5.16 2.35-4.71c.73.45 1.42-1.39 1.55-4.09.17-3.63.46-2.98 1.11 2.51.61 5.13.31 7.76-.97 8.58-1.02.65-1.85 2.58-1.85 4.28 0 2.66-9.83 17.48-11.59 17.48-.34 0-.21-2.16.3-4.81.63-3.28.48-4.12-.47-2.63-2.53 3.94-3.31.41-.93-4.19 2.57-4.98 3.04-9.09 1.02-9.09-.72 0-1.62-1.65-2.01-3.66-.4-2.12-.1-3.28.73-2.77.86.53 1.01-.44.37-2.45-.66-2.08-.5-2.99.41-2.43.81.5 1.82-.41 2.24-2.03.51-1.93.04-2.94-1.35-2.94-1.81 0-1.79-.65.14-4.37 4.76-9.21 2.44-9.64-6.13-1.15-4.61 4.58-10.44 9.16-12.95 10.19s-9.75 5.4-16.09 9.7c-6.34 4.31-12.42 7.83-13.51 7.83s-2.87 1.06-3.94 2.36c-1.42 1.7-3.44 2.13-7.23 1.52l-5.26-.84-.17 6.99c-.34 13.75-1.9 21.5-5.96 29.51-4 7.91-4.04 8.19-1.29 10.2 1.56 1.14 2.12 2.06 1.26 2.06-2.22 0-3.68 11.75-3.43 27.6.13 8.29-.4 13.92-1.38 14.52-.87.54-1.59 2.94-1.59 5.34 0 2.39-.55 4.18-1.21 3.98-.67-.2-3.58 2.13-6.47 5.18s-5.81 5.55-6.48 5.55c-.68 0-.43-.8.54-1.77zm15.1-54.48c0-1.62-.63-2.96-1.39-2.96-1.99 0-3.39 2.7-2.31 4.45 1.55 2.5 3.7 1.64 3.7-1.49zm.09-23.49c.15 3.11 2.94-4.35 5.28-14.09 2.13-8.88 1.58-15.03-1.2-13.31-2.86 1.76-7.46 14.28-7.96 21.63-.43 6.24-.19 7.04 1.64 5.52 1.7-1.41 2.17-1.35 2.24.25zm368.47-14.7c0-4.93-6.67-18.94-9.55-20.04-2.55-.98-4.57 6.22-2.37 8.42.86.86 1.56 2.59 1.57 3.86 0 3.63 5.64 11.91 8.11 11.91 1.47 0 2.24-1.43 2.24-4.15zm-328.6-35.29c3.67-1.47 10.49-6.29 15.18-10.71 12.77-12.05 10.76-15.37-4.07-6.69-12.3 7.2-14.07 8.03-14.07 6.63 0-.8 1.16-2.1 2.58-2.89s2.17-1.86 1.66-2.36c-.51-.51-1.84-.02-2.95 1.09s-3.36 2.79-4.99 3.73c-2.84 1.64-2.85 1.71-.12 1.75 1.56.03 2.34.55 1.73 1.16s-1.58 1.11-2.15 1.11c-.58 0-3.31 2.11-6.07 4.7-4.17 3.89-4.72 5.07-3.2 6.91 1.57 1.89 2.42 1.92 5.83.23 2.19-1.09 6.98-3.19 10.64-4.66zm298.75-2.09c3.94-3.67 3.54-4.46-5.38-10.53-3.82-2.6-7.29-5.18-7.69-5.74-.41-.55-3.45-2.38-6.77-4.06-3.31-1.68-8.92-5.47-12.46-8.43-5.91-4.94-13.47-9.64-15.51-9.64-1.76 0 1.31 8.18 5.3 14.08 6.47 9.59 16.03 17.52 25.74 21.36 4.88 1.93 9.51 4.07 10.28 4.76 2.05 1.81 2.85 1.59 6.49-1.8zm-310.59-5.46c0-.4-1 .09-2.22 1.11-1.22 1.01-2.22 2.17-2.22 2.58s1-.09 2.22-1.1c1.22-1.02 2.22-2.18 2.22-2.59zm270.06-4.9c-1.18-1.3-2.15-3.07-2.15-3.92s-.92-2.32-2.04-3.25c-3.35-2.78-4.17 2.09-.85 5.09 1.55 1.41 3.24 3.89 3.76 5.52.73 2.3 1.21 2.51 2.18.95.77-1.24.42-2.93-.9-4.39zm-285.78-7.13c10.89-4.93 20.4-12.99 26.33-22.31 6.04-9.48 5.24-11.22-2.46-5.34-7.56 5.77-18.6 8.32-23.31 5.38-2.43-1.52-3.78-.97-9.52 3.87-6.86 5.77-8.49 6.96-15.79 11.44l-4.21 2.59 3.28 3.49c2.98 3.17 6.04 4.27 13.68 4.91 1.44.13 6.84-1.69 12-4.03zm19.64-1.01c1.19-1.61 1.88-1.76 2.3-.52.66 2 29.31-9.87 29.31-12.14 0-.72 1-1.32 2.22-1.32s2.22-1.04 2.22-2.3c0-1.27.69-1.88 1.54-1.36 2.08 1.29 8.82-3.26 8.82-5.95 0-1.29.88-1.8 2.22-1.28 1.22.46 2.22.16 2.22-.69 0-.84 3.5-4.89 7.77-9 5.81-5.59 7.07-7.48 4.99-7.51-1.53-.02-5.53 2.84-8.88 6.36-3.36 3.51-8.02 7.84-10.37 9.62s-3.48 3.23-2.5 3.23c.97 0 1.31.74.75 1.64-.7 1.13-1.31 1.16-1.98.08-1.41-2.28-25.46 7.14-33.08 12.96l-6.29 4.79 6.82-6.45c4.31-4.08 9.48-7.25 14.06-8.62 6.25-1.88 7.31-2.76 7.73-6.41.27-2.33-.07-3.96-.74-3.64-7.79 3.8-15.87 7.13-17.26 7.13-.95 0-4.61 3.35-8.13 7.44s-9.68 9.65-13.69 12.34c-4 2.7-6.92 5.26-6.5 5.68 1.49 1.49 14.76-1.81 16.45-4.08zm47.89-5.18c0-2.59-2.6-1.42-5.01 2.25-3.69 5.63-2.74 7.95 1.36 3.3 2-2.28 3.65-4.78 3.65-5.55zm201.3 5.18c0-1.18-.66-2.14-1.48-2.14-.81 0-1.48 1.38-1.48 3.05 0 1.68.67 2.64 1.48 2.13.82-.5 1.48-1.87 1.48-3.04zm-312.64-5.95c-1.08-2.39-2.85-3.59-5.29-3.59-3.9 0-13.63 5.31-13.63 7.44 0 1.77 11.73 2.45 16.57.96 3.59-1.1 3.82-1.59 2.35-4.81zm118.31-5.35c.36-2.32.02-2.44-2.5-.88-1.59 1-2.83 3.17-2.75 4.82.09 1.65-.33 4.34-.92 5.96-.59 1.63.46.67 2.34-2.12 1.88-2.8 3.61-6.3 3.83-7.78zm281.42 9.68c5.75-1.54.54-3.43-9.38-3.4-8.44.03-8.7.13-5.18 2.14 4 2.29 9.07 2.73 14.56 1.26zm-380.79-7.42c7.08-3.47 31.49-24.89 30.03-26.35-.36-.36-5.15-.02-10.65.76-9.39 1.33-10.67 2-20.85 10.87-5.96 5.21-12.26 9.91-13.99 10.46-3.55 1.13-3.88 2.61-1.55 6.95 1.9 3.55 5.37 3 17.01-2.69zm-32.53.24c3.82-2.03 7.88-3.7 9.02-3.7 3.88 0 13.05-5.69 21.77-13.51l8.73-7.84-4.88-1.26c-4.42-1.15-5.44-.73-10.95 4.49-10.19 9.66-21.35 14.92-34.94 16.47l-8.14.93 4.01 4.06c4.92 5 6.59 5.04 15.38.36zm427.62-.04c3.26-2 8.09-3.65 10.73-3.65 6.25-.01 6.07-2.06-.78-8.91-4.45-4.45-8.33-6.42-18.88-9.57-7.3-2.18-16.25-4.87-19.9-5.98-3.64-1.1-6.78-1.85-6.97-1.66s-.54 3.13-.77 6.55c-.27 3.84-1.28 6.53-2.65 7.06-1.22.47-2.41.64-2.65.39-1.03-1.14-3.23 4.36-3.25 8.13-.02 3.52 1.02 4.61 6.87 7.2 4.71 2.08 8.8 2.82 12.95 2.35 3.33-.38 8.06-.2 10.5.39 7.17 1.76 8.57 1.54 14.8-2.3zm2.14-7.46c-2.34-2.82-9-6.38-16.94-9.05l-5.92-1.99 5.85.89c3.22.48 8.22 2.1 11.1 3.59 5.23 2.71 11.57 8.88 9.12 8.88-.71 0-2.15-1.04-3.21-2.32zm-33.57-12.06c2.25-.34 5.58-.33 7.4.02s-.02.63-4.09.62-5.56-.3-3.31-.64zm77.59 19.44c1.52-2.08 1.39-3.37-.69-7.13-1.4-2.52-2.63-4.78-2.73-5.02s-2.04-.77-4.3-1.18c-5.44-.99-9.46-3.14-14.27-7.61-3.78-3.53-4.48-3.64-16.1-2.61l-12.14 1.07 7.93 3.16c5.35 2.14 8.9 4.71 10.92 7.92 4.68 7.44 15.36 9.44 28.71 5.37 1.47-.45 1.26-.01-.56 1.15-1.63 1.03-7.43 1.91-12.89 1.96l-9.93.08 6.23 3.35c7.2 3.86 16.8 3.62 19.82-.51zm-94.26-7.9c0-1.56.35-3.76.78-4.88.51-1.31-1.23-3-4.81-4.69-10.46-4.95-20.37-12.49-34.09-25.96-7.52-7.39-14.65-13.43-15.82-13.43-1.18 0-6.01-3.54-10.74-7.87-4.72-4.32-11.07-9.36-14.1-11.19-3.02-1.83-7.87-6.12-10.76-9.53-4.62-5.45-5.07-5.69-3.74-2.03 2 5.53 1.9 7.33-.34 6.06-1.48-.83-1.48-.64 0 .95 1.01 1.1 1.85 3.13 1.85 4.51 0 2.33 4.07 8.34 19.73 29.15 5.98 7.96 20.91 20.79 36.46 31.35 8.29 5.64 15.87 8.31 26.7 9.4 2.85.29 6.01.64 7.03.77s1.85-1.05 1.85-2.61zm-309.71-7.89c3.28-3.5 6.27-10.13 6.27-13.89 0-3.75-6.14-.9-12.21 5.67-6.09 6.6-6.91 9.5-2.96 10.53 4.84 1.27 5.77 1.02 8.9-2.31zm103.21-.55c1.4-2.14 1.81-3.43.92-2.88-1.71 1.06-5.16 6.76-4.09 6.76.34 0 1.77-1.75 3.17-3.88zm-87.53-7.92c4.38-4.85 5.41-7.09 5.14-11.19-.19-2.82-.63-5.13-.98-5.13s-2.84 1.36-5.54 3.03c-3.78 2.34-5.42 4.84-7.22 11.02-1.28 4.4-2.98 8.41-3.79 8.9-.8.5-1.46 1.55-1.46 2.34 0 2.57 8.25-2.76 13.85-8.97zm32.8 6.42c11.34-7.5 17-14 17-19.52v-5.05l-4.81 3.65c-2.65 2.01-6.81 4.69-9.25 5.95-7.02 3.62-12.58 9.53-12.58 13.37 0 6.57 1.7 6.86 9.64 1.6zm-21.17.28c2.82-1.17 8.31-5.14 12.2-8.82 3.89-3.67 9.79-8.1 13.1-9.82 3.32-1.73 9.73-6.92 14.26-11.53 9.07-9.25 23.7-20.22 20.81-15.61-.96 1.53-4.06 4.44-6.89 6.48-12.4 8.91-13.83 10.5-13.83 15.42 0 6.2.81 6.86 6.11 5.01 2.99-1.04 5.47-3.69 7.86-8.39 1.91-3.77 6.22-9.96 9.56-13.75s6.07-7.29 6.07-7.77c0-.49-1.58-.88-3.52-.88-1.93 0-4.32-.97-5.3-2.16-1.52-1.83-2.73-1.24-7.95 3.88-6.85 6.69-18.91 13.04-24.81 13.06-4.23.02-7.12 2.69-10.86 10.07-3.03 6-10.35 10.66-16.73 10.66-4.01.01-4.92.66-5.67 4.08-.49 2.24-1.47 5.9-2.17 8.14-1.51 4.8 0 5.17 7.76 1.93zm368.48-3.41c-2.46-3.05-7.18-7.07-10.49-8.92-5.61-3.15-6.02-3.19-6.02-.66 0 1.5.83 3.79 1.85 5.1 2.92 3.76 13.08 10.03 16.24 10.03 2.57 0 2.4-.59-1.58-5.55zm-78-2.26c.39-1.81.9-4.35 1.13-5.65.61-3.52-18.83-18.59-25.36-19.67-2.92-.48-9.64-.86-14.94-.83l-9.62.05 9.62 8.98c10.22 9.55 17.85 15.21 27.24 20.23 6.56 3.51 10.73 2.42 11.93-3.11zm79.79-2.81c-7.19-7.42-14.49-11.74-33.44-19.79l-15.01-6.38-3.63 2.85c-1.99 1.57-4.7 2.82-6.02 2.76-1.67-.06-1.43-.48.79-1.37 8.4-3.39 5.93-5.45-14.28-11.89-8.55-2.73-21.16-7.15-28.03-9.83s-12.87-4.49-13.32-4.03c-.46.46 3.57 5.02 8.96 10.13 12.5 11.85 24.25 17.67 35.35 17.48 5.71-.1 7.04.19 4.44.96-2.63.78.16 1.42 9.62 2.21 22.62 1.89 38.44 5.97 46.73 12.05 3.99 2.94 8.43 7.31 9.85 9.72 1.43 2.41 2.84 3.63 3.15 2.71.3-.92-2.02-4.33-5.16-7.58zm-213.69.09c0-2.59.62-4.06 1.48-3.53 2.2 1.36 1.71-2.54-.72-5.75-1.16-1.54-2.55-5.72-3.09-9.3-.88-5.85-1.18-6.24-2.97-3.87-1.9 2.5-2.01 2.48-2.07-.32-.04-1.63-.66-3.89-1.37-5.01-.8-1.26-1 .59-.53 4.81.53 4.68.23 6.86-.95 6.86-1.21 0-1.29.8-.27 2.72.81 1.5 1.11 4.07.68 5.72-.52 1.96.08 3.32 1.72 3.95 2.55.98 2.5-.92-.22-8.92-.71-2.08-.35-1.95 1.54.57 1.36 1.82 2.86 6.64 3.34 10.7.93 7.84 3.43 8.84 3.43 1.37zm-49.95.35c1.74.97 2.59.94 2.59-.11 0-.85-.98-1.55-2.18-1.55-1.39 0-1.84-.86-1.25-2.39.77-2 .43-2.13-2.08-.79-1.65.88-3.37 3.02-3.83 4.75-.74 2.86-.59 2.94 1.67.89 1.79-1.62 3.22-1.84 5.08-.8zm241.19-1.13c.57-.34-.25-2.79-1.82-5.45-2.6-4.41-3.82-5-13.62-6.58-5.91-.96-15.42-2.16-21.12-2.68-13.56-1.23-13.79-1.28-24.3-5.52-5.07-2.05-9-2.95-9-2.06 0 2.46 12.82 13.78 18.92 16.71 11.04 5.3 25.46 7.97 38.06 7.06 6.52-.48 12.31-1.14 12.88-1.48zm65.43-.9c-2.85-5.01-6.07-7.03-13.71-8.61-9.76-2.01-13.51-3.8-26.27-12.53-9.41-6.45-17.27-9.55-24.24-9.57-3.12 0-2.43.84 4.44 5.45 4.46 3.01 12.11 8.53 17 12.27 4.88 3.74 10.56 7.64 12.6 8.67 10.19 5.1 32.44 8.28 30.18 4.32zm32.71-10c9.45-7.3 14.94-13.18 16.21-17.37.79-2.64.21-3.68-2.83-5.07-3.43-1.56-4.34-1.27-8.61 2.73-6.59 6.19-16.14 9.54-27.11 9.54-11.3 0-18.68-3.41-25.35-11.72-3.93-4.9-5.63-5.91-9.73-5.79-2.73.07-8.25-1.45-12.26-3.39-6.23-3.01-9.33-3.49-21.35-3.33-21.79.29-37.28-3.8-50.94-13.42-2.38-1.68-6.37-3.2-8.89-3.39-2.51-.19-11.33-.73-19.61-1.2-22.78-1.31-44.35-7.77-53.69-16.1-6.85-6.1-5.42-7.63 1.89-2.05 12.96 9.9 34.01 16 56.7 16.45l16.49.32-5.97-6.38c-6.2-6.6-16.11-12.35-21.32-12.35-1.65 0-6.94-1.96-11.75-4.35-7.26-3.6-10.51-4.33-19.11-4.26-12.14.1-20.98-2.6-24.13-7.39l-2.24-3.41 7.11 3.78c7.17 3.81 15.19 4.66 22.96 2.43 3.04-.87 2.25-1.26-4.44-2.16-4.47-.6-13.03-2.37-19.01-3.93-11.62-3.03-13.84-2.47-14.7 3.75-.36 2.56-.16 2.66 1.48.74 2.91-3.4 5.22-3.19 4.83.44-.19 1.79-.43 5.83-.53 8.98-.18 5.27-.48 5.67-3.89 5.02-2.04-.39-3.7-.14-3.7.57 0 1.18 2.22 1.75 3.53.9.32-.2 1.95 1.3 3.63 3.33l3.05 3.7-.9-3.7c-.85-3.5-.74-3.57 1.93-1.34 4.77 3.99 28.23 16.12 37.23 19.26 20.55 7.16 45.16 14.71 58.84 18.06 8.14 1.99 18.75 5.29 23.57 7.33 6.5 2.74 9.85 3.39 12.9 2.52 4.47-1.28 17.32 1.16 23.48 4.47 2.03 1.09 6.03 3.85 8.88 6.12 15.77 12.58 35.55 14.41 60.63 5.62 8.96-3.14 13.38-3.59 13.38-1.37 0 .81-1.5 1.37-3.33 1.26s-7.35 1.19-12.26 2.88c-4.91 1.7-12.4 3.55-16.65 4.12-4.25.56-7.73 1.3-7.73 1.64 0 .35 1 2.55 2.21 4.9l2.21 4.28 10.74-2.98c7.1-1.96 13.26-4.92 18.15-8.69zm-476.57 6.45c10.73-3.63 18.03-8.61 28.41-19.38 8-8.31 8.68-9.43 5.18-8.54-2.22.56-7.75 1.62-12.29 2.36-16.26 2.64-36.41 11.44-47.93 20.93-5.32 4.39-5.46 4.73-2.83 6.72 3.46 2.62 18.72 1.53 29.46-2.09zm162.17-2.45c-1.93-1.94-2.2.21-.55 4.4 1.03 2.61 1.08 2.61 1.62-.04.3-1.51-.18-3.47-1.07-4.36zm33.9-.62c0-2.94-.43-4.91-.96-4.38-1.35 1.35-1.49 11.24-.15 10.4.61-.38 1.11-3.09 1.11-6.02zm-294.8-1.84c3.803-3.01 7.653-6.42 8.563-7.58 2.47-3.15 3.67-9.6 2.41-13.01-1.09-2.94-1.41-2.88-12.208 2.07-6.101 2.8-11.919 5.11-12.93 5.12-1.01.02-3.675 1.94-5.92 4.28-5.699 5.93-15.004 12-18.722 12.2-8.451.48 7.116 2.5 18.825 2.45 12.802-.05 13.208-.17 19.982-5.53zm16.533-1.23c2.85-1.29 7.25-3.89 9.78-5.78 2.53-1.88 8.19-5.41 12.58-7.83l7.99-4.4-5.18-.06c-2.85-.03-6.85-1.36-8.89-2.95-2.66-2.09-6.04-2.91-12.07-2.93l-8.37-.03.77 5.68c.88 6.57-2.02 13.26-7.68 17.71-2.05 1.61-3.729 3.39-3.729 3.95 0 1.41 8.569-.54 14.799-3.36zm119.12 2.13c2.55-1.09 6.94-5.6 10.4-10.67 4.18-6.14 7.08-8.92 9.65-9.25 12.26-1.57 23.63-8.35 29.93-17.85 4.7-7.08 3.11-8.1-5.22-3.33-4.31 2.47-13.93 6.81-21.39 9.66-18.3 6.98-21.06 8.54-28.25 15.94-5.03 5.19-6.18 7.41-6.18 11.94 0 4.81.45 5.56 3.33 5.5 1.83-.03 5.31-.91 7.73-1.94zm104.17.38c4.31-1.5 6.45-4.29 3.28-4.29-.75 0-2.45-1.08-3.77-2.4-1.31-1.32-2.53-2.15-2.69-1.85-6.11 11.14-5.9 11.71 3.18 8.54zm74.79-7.06c-2.8-3.27-5.38-2.89-4.04.59.45 1.19 1.47 1.77 2.25 1.28.78-.48 1.85.69 2.38 2.6.7 2.59 1.08 2.85 1.46 1.01.29-1.36-.64-3.83-2.05-5.48zm12.88 4.62c.06-1.43.25-4.37.41-6.55.16-2.17-.22-3.63-.86-3.24-.63.39-1.15 1.98-1.15 3.54 0 1.9-.73 2.55-2.22 1.97-1.22-.46-2.22-2.04-2.22-3.49 0-1.46-.95-3.01-2.1-3.45-3.09-1.19-4.13 3.12-1.17 4.84 1.39.81 2.03 1.5 1.43 1.52-1.49.06 5.01 7.45 6.54 7.45.67 0 1.27-1.17 1.34-2.59zm5.67-11.36c-4.19-6.12-5.46-5.88-2.2.42 1.28 2.47 2.4 6.7 2.48 9.39l.15 4.88 1.54-4.79c1.32-4.1 1.04-5.51-1.97-9.9zm-145.39 4.81c1.88-1.77 3.42-3.8 3.42-4.5 0-2.19 15.34-16.88 20.31-19.45 2.59-1.34 6.07-2.43 7.74-2.43 3.23 0 4.18-2.34 1.35-3.28-1.08-.36-.38-2.66 1.96-6.42 3.93-6.31 8.67-21.57 8.51-27.41-.1-3.32-.2-3.37-1.34-.64-.68 1.63-2.09 6.86-3.13 11.64-1.98 9.02-1.71 8.67-20.6 26.49-10.32 9.73-25.46 29.22-22.7 29.22.58 0 2.59-1.45 4.48-3.22zm109.25 1.74c-.5-.82-1.2-1.48-1.56-1.48s-.66.66-.66 1.48c0 .81.71 1.48 1.57 1.48s1.16-.67.65-1.48zm9.6-2.75c-.04-5.07-4.4-7.5-7.26-4.05-1.84 2.21-.56 7.25 1.52 5.96.73-.45 1.33-.13 1.33.7 0 .84.99 1.14 2.22.67 1.22-.46 2.21-1.94 2.19-3.28zm-266.47-2.47c4.44-2.83 7.43-5.14 6.66-5.13-1.75.02-16.96 8.66-16.96 9.64 0 1.54 2.56.42 10.3-4.51zm232.12-.65c-.35-5.07-.69-5.58-2.52-3.75-1.69 1.68-1.77 2.87-.4 5.86 2.43 5.35 3.39 4.66 2.92-2.11zm-6.27-1.44c-.47-.75-.16-1.79.68-2.31s1.11-1.63.6-2.46c-1.34-2.16-4.62 4.88-3.81 8.18.61 2.46.83 2.5 2.03.36.74-1.33.96-3.02.5-3.77zm-56.38-2.15c.14-3.09-.24-3.4-2.6-2.14-1.52.81-2.38 1.86-1.91 2.33s.1 1.76-.82 2.88c-1.34 1.61-1.14 1.81 1 .99 2.03-.78 2.38-.52 1.47 1.08-.96 1.68-.81 1.74.75.29 1.08-1 2.03-3.44 2.11-5.43zm49.53 4.43c1.31-1.57 1.24-2.53-.31-4.08-1.11-1.11-1.71-2.93-1.34-4.04.4-1.22-.14-1.75-1.35-1.35-1.87.62-2.13 2.11-1.54 8.95.28 3.12 2.2 3.34 4.54.52zm-40.51-.99c1.52-2.46.15-2.8-1.97-.49-1.05 1.14-1.26 2.07-.46 2.07s1.89-.71 2.43-1.58zm80.01-3.59c.19-1.23-.68-2.23-1.91-2.23-1.39 0-1.93.84-1.4 2.22.55 1.44-.04 2.23-1.69 2.24-2.17.02-2.22.23-.34 1.42 2.47 1.56 4.82-.05 5.34-3.65zm-313.12-.05c3.707-1.13 11.994-4.55 18.414-7.6l11.677-5.54-10.28-2.63c-12.545-3.21-25.01-3.36-37.323-.46-15.397 3.63-20.27 8.8-13.81 14.64 5.768 5.22 17.476 5.82 31.322 1.59zm324.08 1.13c0-1.43-1.37-3.45-3.03-4.49-2.96-1.85-2.98-1.8-.7 2.6 2.64 5.11 3.73 5.66 3.73 1.89zm4.43-2.89c-1.61-2.51-1.65-2.51-.85.07.47 1.49.91 3.49.97 4.44.09 1.25.32 1.23.85-.07.4-.98-.04-2.98-.97-4.44zm-66.15-3.45c1.1-4.22-1.76-3.54-3.41.81-.78 2.03-2.09 3.7-2.92 3.7-.84 0-1.52.68-1.52 1.51 0 2.5 7.03-2.9 7.85-6.02zm154.97 6c0-.81-2.13-3.31-4.73-5.55-7.28-6.28-11.61-11-15.28-16.67-2.25-3.46-6.71-6.87-13.51-10.3-9.71-4.9-22.12-11.78-32.98-18.3-2.79-1.67-4.59-2.25-3.99-1.28s.36 1.76-.53 1.76c-1.16 0-1.17.84-.03 2.96 1.13 2.12 1.12 2.96-.04 2.96-.89 0-1.22.64-.73 1.43.48.78-.41 2.71-1.99 4.29-2.21 2.21-3.32 2.48-4.84 1.17-1.09-.94-.32.19 1.7 2.51 7.09 8.13 11.35 10.25 18.43 9.19 6.45-.97 6.46-.98 5.11-5.7-1.71-5.97-1.72-8.45-.03-8.45.74 0 2.13 3.3 3.09 7.33.97 4.03 2.7 8.11 3.85 9.06 1.15.96 2.09 2.67 2.09 3.81 0 2.74 6.18 12.35 10.31 16.05 2.58 2.31 6.25 3.14 16.84 3.83 7.46.49 14.39 1 15.41 1.13 1.01.13 1.85-.42 1.85-1.23zm168.9-3.06c5.33-2.72 12.55-11.37 10.89-13.04-.38-.37-4.42 1.21-8.97 3.51-7.52 3.81-9.78 4.2-24.39 4.32-15.54.11-16 .21-13.41 2.8 7.27 7.27 24.13 8.41 35.88 2.41zm-319.93-2.87c0-1.98-.16-1.98-1.43 0-.79 1.22-1.44 3.22-1.44 4.44 0 1.97.16 1.97 1.44 0 .79-1.22 1.43-3.22 1.43-4.44zm9.92 3.7c0-1.22-.56-2.22-1.24-2.22-1.47 0-1.62 2.07-.24 3.45 1.37 1.37 1.48 1.28 1.48-1.23zm30.09-.83c0-1.68-.63-2.65-1.41-2.17s-1.04 1.85-.58 3.04c1.17 3.06 1.99 2.7 1.99-.87zm9.78-2.47c-.49-.49-.84.38-.78 1.94.07 1.72.42 2.08.9.89.42-1.06.37-2.34-.12-2.83zm-74.94-2.29c2.45-4.35 1-7.3-1.83-3.71-1.01 1.29-3.24 2.75-4.97 3.26-2.74.82-3.05.43-2.48-3.18l.64-4.1-3.43 3.7c-1.89 2.03-5.04 4.4-7.01 5.27-2.97 1.31-2.16 1.5 4.81 1.16 5.12-.25 8.39.2 8.39 1.14 0 2.67 3.6.5 5.88-3.54zm96.99 3.37c-.51-.82-1.58-1.48-2.4-1.48-.81 0-1.07.66-.56 1.48.5.81 1.58 1.48 2.39 1.48.82 0 1.07-.67.57-1.48zm-38.69-2.22c.47-1.22.21-2.22-.58-2.22s-1.44 1-1.44 2.22.26 2.22.58 2.22.97-1 1.44-2.22zm31.29.74c-.51-.82-1.71-1.47-2.68-1.46-1.06.01-.88.59.46 1.46 2.84 1.83 3.35 1.83 2.22 0zm-266.43-4.44c0-2.52-9.02-3.81-15.4-2.21-3.76.95-3.78 1.01-.88 3.13 3.96 2.9 16.28 2.2 16.28-.92zm246.44-.02c0-.65-1.32-.84-2.94-.42-1.62.43-2.6 1.33-2.17 2.02.9 1.46 5.11.14 5.11-1.6zm59.63-5.16c-3.42-6.97-4.59-8.15-8.13-8.15-4.83 0-4.94.36-1.67 5.35 1.96 2.99 11.7 10.94 13.41 10.94.21 0-1.42-3.67-3.61-8.14zm-286.07 4.19c9.75-2.71 10.99-4.95 4.92-8.93-4.85-3.17-11.22-2.66-18.43 1.49-5.26 3.03-5.35 3.22-3 6.47 2.93 4.04 5.04 4.16 16.51.97zm538.02-2.02c0-3.25-.7-3.71-6.41-4.12-4.19-.3-7.74.41-10.23 2.04l-3.82 2.51 3.29 1.76c1.81.97 6.42 1.69 10.23 1.61 6.35-.13 6.94-.45 6.94-3.8zm-303.9-.27c-1.07-1.07-1.75-1.15-1.75-.23 0 1.98 1.75 3.73 2.73 2.74.42-.42-.02-1.55-.98-2.51zm8.1-.36c-.49-1.26-1.57-2.28-2.42-2.28-.97 0-.88 1.06.27 2.89 2.04 3.27 3.48 2.86 2.15-.61zm261.91-.94c7.61-3.91 9.89-8.29 6-11.52-1.68-1.39-2.59-1.32-4.22.31-6.9 6.9-22.06 8.95-35.76 4.83-3.8-1.15-12.9-5.81-20.23-10.37-7.33-4.55-14.28-8.28-15.44-8.28-11.86 0 12.96 22.12 31.75 28.3 2.04.67 9.77 1.04 17.18.83 10.99-.31 14.81-1.07 20.72-4.1zm42.77 3.1c.5-.82-.42-1.48-2.04-1.48-1.63 0-3.38.66-3.88 1.48-.5.81.42 1.48 2.05 1.48 1.62 0 3.37-.67 3.87-1.48zm-514.59-5.22c.28-.27.07-2.5-.46-4.95l-.98-4.45-6.69 2.87c-3.68 1.58-7.46 2.88-8.41 2.89-3.14.04-5.83 2.57-4.7 4.4.8 1.3 3.86 1.51 10.92.76 5.4-.57 10.04-1.26 10.32-1.52zm487.47-.2c1.85-1.67 5.53-2.49 11.59-2.58 4.88-.06 8.87-.49 8.87-.96 0-.46-.87-2.03-1.94-3.49-2.87-3.92-16.07-3.59-20.18.52-2.85 2.85-4.25 8.97-2.05 8.97.55 0 2.22-1.11 3.71-2.46zm34.27-.23c1.34-1.48 2.86-4.81 3.38-7.4.85-4.26.6-4.72-2.63-4.72-1.96 0-6.19-1.33-9.38-2.96-3.19-1.62-6.98-2.96-8.41-2.96-2.28 0-2.13.7 1.17 5.55 2.07 3.06 4.12 7.35 4.56 9.54.51 2.54 1.95 4.22 3.96 4.61 1.74.34 3.56.71 4.04.82.49.12 1.98-1 3.31-2.48zm-118.59-9.9c-10.59-10.79-11.08-11.1-18.07-11.1-20.54 0-48.49-7.91-54.4-15.39-2.06-2.61-4.19-3.31-10.36-3.39-4.28-.07-7.77.1-7.77.37 0 1.33 17.45 16.81 23.76 21.07 12.53 8.45 21.99 10.94 42.85 11.24 16.92.25 19.13.61 25.9 4.22 4.07 2.17 7.76 3.98 8.19 4.02.43.03-4.11-4.93-10.1-11.04zm-372.04 1.43c13.55-4.51 26.96-9.52 29.81-11.15s3.83-2.61 2.18-2.17c-8.21 2.15-27.4 3.63-36.3 2.8-11.45-1.06-30.6 2.99-28.24 5.98.71.9 2.09 4.13 3.07 7.18.99 3.06 2.48 5.56 3.33 5.56.84 0 12.61-3.69 26.15-8.2zm74.77 1.66c12.8-9.29 18.69-19.93 18.69-33.79 0-3.16.61-5.35 1.38-4.88.75.47.4-1.09-.78-3.47-1.86-3.72-6.08-7.03-7.36-5.75-.22.22-.79 2.4-1.27 4.84l-.87 4.44 2.01-4.27c1.4-2.97 2.37-3.71 3.16-2.43.63 1.02.52 2.28-.24 2.8-.76.51-2.82 3.89-4.57 7.49-2.56 5.25-3.4 6.03-4.21 3.93-.61-1.6-.19-3.16 1.06-3.95 1.14-.72 1.4-1.29.59-1.28-.82.01-2.81 1.03-4.44 2.26-2.53 1.91-2.64 2.43-.74 3.63 1.48.93 1.6 1.4.36 1.42-1.01.01-2.08-.15-2.36-.35-1.43-1.03-5.01 3.78-4.44 5.98.42 1.62-2.04 5.18-6.82 9.88-7.96 7.83-9.36 12.53-5.13 17.21 1.96 2.16 3.12 2.32 7.03.98 2.58-.88 6.61-2.99 8.95-4.69zm-6.13-5.64c6.21-6.24 10.97-12.84 14.42-20 5.51-11.43 8.8-14.67 8.19-8.04-.88 9.44-2.76 15.23-5.41 16.65-1.55.83-2.46 2.1-2.02 2.82.44.71.05 1.76-.87 2.33-.91.57-2.15.25-2.74-.71-.71-1.14-2.99.59-6.62 5.01-3.04 3.72-7.49 7.77-9.88 9.01-3.17 1.64-1.84-.27 4.93-7.07zm16.92-16.69c0-3.25-.63-2.77-3.37 2.59-2.43 4.76-2.43 4.78.46 2.22 1.6-1.43 2.91-3.6 2.91-4.81zm3.41-8.88c0-.81-.64-.48-1.43.74s-1.44 2.89-1.44 3.7c0 .82.65.48 1.44-.74s1.43-2.88 1.43-3.7zm-14.76 10.45c0-.56.69-2.31 1.54-3.89 1.63-3.04 6.51-4.05 5.54-1.13-.67 1.99-7.08 6.54-7.08 5.02zm54.02 25.79c-.52-.83-1.55-1.12-2.31-.65-2.05 1.27-1.67 2.16.93 2.16 1.27 0 1.89-.68 1.38-1.51zm-168.32-6.23c6.53-2.89 7.13-5.59 1.24-5.59-1.85 0-7.24 1.58-11.98 3.51-7.55 3.07-8.27 3.7-5.8 5.1 3.17 1.8 7.36 1.03 16.54-3.02zm57.32-1.1c17.07-6.76 41.64-19.19 44.6-22.56 1.52-1.74 1.93-2.67.91-2.08-1.14.67-1.85.23-1.85-1.16 0-1.5-3.63.36-10.93 5.6-11.57 8.31-29.62 17.63-37.38 19.31-2.56.56-7.89 2.32-11.84 3.92l-7.19 2.91 6.66-.92c3.66-.51 11.32-2.77 17.02-5.02zm159.86 4.39c-.51-.81-1.21-1.48-1.57-1.48s-.65.67-.65 1.48c0 .82.7 1.49 1.56 1.49.87 0 1.16-.67.66-1.49zm260.87-3.41c2.64-1.79 4.8-3.81 4.81-4.5.02-3.34-5.42-9.82-8.79-10.45-11.35-2.15-21.63-2.58-38.4-1.6-14.81.87-18.1 1.44-15.9 2.76 1.52.91 6.66 4.13 11.41 7.14 17.93 11.37 36.07 13.95 46.87 6.65zm-279.38 1.93c0-.81-.66-1.48-1.48-1.48-.81 0-1.48.67-1.48 1.48 0 .82.67 1.48 1.48 1.48.82 0 1.48-.66 1.48-1.48zm23.69 0c0-.81-.71-1.48-1.57-1.48s-1.16.67-.65 1.48c.5.82 1.21 1.48 1.56 1.48.36 0 .66-.66.66-1.48zm281.87-5.24 7.31-1.09-4.06-3.5c-2.23-1.92-5.52-3.48-7.3-3.48-5.24.01-14.35 2.96-14.35 4.64 0 2.8 6.49 6.99 8.87 5.72 1.22-.66 5.52-1.69 9.53-2.29zm-341.08.8c0-.81-1.33-1.48-2.96-1.48s-2.96.67-2.96 1.48c0 .82 1.33 1.48 2.96 1.48s2.96-.66 2.96-1.48zm-189.48-4.13c2.48-.93-1.13-1.15-11.1-.69-8.13.38-21.11-.11-28.85-1.09-7.73-.97-22.38-2.01-32.56-2.3l-18.502-.53 8.348 2.12c16.874 4.29 73.234 5.98 82.664 2.49zm242.95-.7c-1.46-1.45-1.63-1.28-.83.83.56 1.46 1.38 2.28 1.84 1.82.46-.45 0-1.65-1.01-2.65zm-68.27.39c0-.81-.71-1.48-1.57-1.48s-1.15.67-.65 1.48c.5.82 1.21 1.48 1.57 1.48.35 0 .65-.66.65-1.48zm71.86-5.78c-1.46-2.82-1.75-4.58-.76-4.58.88 0 1.15-.73.59-1.64-.72-1.15-1.35-1.09-2.17.24-1.09 1.76 2.85 12.41 4.12 11.14.32-.32-.48-2.64-1.78-5.16zm314.45 4.67c-.03-4.26-12.91-16.65-17.3-16.65-2.31 0-2.35.66-.45 7.5 1.04 3.72 2.89 5.99 6.29 7.68 5.07 2.52 11.48 3.35 11.46 1.47zm-518.39-3.57 6.31-1.98-4.87-3.87-4.87-3.87-11.81 6.57-11.8 6.57 10.36-.73c5.7-.39 13.2-1.61 16.68-2.69zm155.76.24c0-.81-.66-1.48-1.48-1.48-.81 0-1.48.67-1.48 1.48 0 .82.67 1.48 1.48 1.48.82 0 1.48-.66 1.48-1.48zm19.98 0c-.5-.81-1.21-1.48-1.56-1.48-.36 0-.66.67-.66 1.48 0 .82.71 1.48 1.57 1.48s1.16-.66.65-1.48zm311.94-1.48h10v-4.24c0-5.26-4.66-11.4-9.59-12.64-2.09-.52-6.05.05-9.08 1.32-6.99 2.92-12.7 2.8-23.2-.48-4.71-1.47-10.57-2.38-13.03-2.02-4.06.6-4.38 1.05-3.53 4.92 1.14 5.2-1.55 5.79-2.85.63-1.5-5.97-14.5-6.82-35.67-2.34-11.95 2.53-37.19 1.13-48.85-2.7-11.24-3.7-13.38-3.96-21.1-2.57-3.75.68-5.91 1.76-5.34 2.68.52.84 5.28 3.5 10.58 5.9 17.2 7.8 39.65 10.38 62.09 7.14 21.01-3.04 36.86-3.72 50.58-2.16 12.04 1.37 14.34 2.09 17.03 5.31 2.62 3.16 3.77 3.54 7.53 2.49 2.43-.68 8.93-1.24 14.43-1.24zm-303.8 0c0-.81-.7-1.48-1.56-1.48-.87 0-1.16.67-.66 1.48.51.82 1.21 1.48 1.57 1.48s.65-.66.65-1.48zm-138.39-1.61c1.63-.15 5.96-.9 9.62-1.67s7.86-1.65 9.32-1.95c1.47-.3 4.58-2.08 6.93-3.95s6.62-5.06 9.49-7.1c3.85-2.72 5.02-4.48 4.45-6.66-.63-2.4-.49-2.54.77-.74 1.29 1.84 2.42 1.3 1.23-.58-.2-.33.97-2.13 2.59-4.02l2.96-3.42-4.02 2.53c-2.21 1.4-7.69 3.91-12.18 5.59-4.57 1.71-9.63 4.89-11.52 7.25-3.53 4.41-17.13 14.15-18.23 13.06-.35-.35 3.14-3.26 7.76-6.45 9.18-6.37 12.11-10.54 6.18-8.81-1.93.56-8.84 3.55-15.35 6.64s-14.51 6.44-17.76 7.45c-13.51 4.19-7.58 5.13 17.76 2.83zm172.44.13c0-.81-.71-1.48-1.57-1.48s-1.16.67-.65 1.48c.5.82 1.21 1.48 1.57 1.48.35 0 .65-.66.65-1.48zm-181.32-8.97 11.84-5-7.26-1.06c-4.65-.69-10.25-.34-15.54.95-4.56 1.1-12.11 2.44-16.8 2.97-9.1 1.03-10.01 1.9-5.89 5.62 6.97 6.31 11.53 5.84 33.65-3.48zm174.16 1.28c-1.68-3.5-3.73-8.2-4.57-10.44s-2.12-4.07-2.85-4.07-.15 2.5 1.3 5.55c1.46 3.05 3.79 8.07 5.19 11.16 1.41 3.08 2.88 5.28 3.27 4.88.39-.39-.66-3.58-2.34-7.08zm-76.47 3.25c-.5-.81-1.21-1.48-1.57-1.48s-.65.67-.65 1.48c0 .82.7 1.48 1.57 1.48.86 0 1.15-.66.65-1.48zm85.11-1.38c0-1.59-1.36-3.29-3.07-3.83-4.71-1.5-5.46.64-1.35 3.8 4.55 3.5 4.42 3.49 4.42.03zm-20.72-3.04c-1.59-2.98-1.49-3.09 1.49-1.49 4.27 2.28 5.53.71 2.3-2.87-1.43-1.58-2.17-3.57-1.64-4.43.57-.93.07-1.21-1.24-.71-1.22.47-1.85 1.79-1.4 2.94.44 1.16.05 2.1-.87 2.1s-2.08-2-2.57-4.44c-.48-2.44-1.44-4.44-2.11-4.44-.68 0-.31 2.63.83 5.85 2.68 7.6 5.26 12.36 6.19 11.43.4-.41-.03-2.18-.98-3.94zm-51.81 1.46c0-.81-1-1.48-2.22-1.48s-2.22.67-2.22 1.48c0 .82 1 1.48 2.22 1.48s2.22-.66 2.22-1.48zm42.56-.37c-.94-2.8-5.56-3.2-5.56-.48 0 1.38 1.27 2.33 3.09 2.33 1.81 0 2.83-.76 2.47-1.85zm-159.97-9.36c7.42-2.73 19.72-11.82 19.72-14.58 0-2.79-12.34-.03-19.2 4.3-2.88 1.81-9.55 5.43-14.84 8.05-5.3 2.61-10.15 5.26-10.79 5.89-1.82 1.79 18.23-1.14 25.11-3.66zm-172.7-3.14c26.81-8.77 46.693-8.29 61.703 1.48 7.47 4.86 14 5.73 26 3.44 7.35-1.41 7.03-3.39-.74-4.66-7.53-1.23-11.47-4.36-11.47-9.08 0-2.93-.76-3.47-4.81-3.48-2.65-.01-10.44-1.36-17.31-3.01-6.88-1.65-17.144-3.65-22.82-4.46-14.299-2.02-48.817-1.98-60.193.08-8.543 1.55-11.032 2.83-20.316 10.44-2.5731 2.11-2.3131 8.05.453 10.35 3.938 3.27 15.802 5.51 25.08 4.73 4.885-.41 15.875-3.03 24.423-5.83zm241.18 2.14c4.97-5.3 5.58-7.03 2.46-7.03-1.82 0-11.26 9.35-11.26 11.15 0 2.3 4.96-.02 8.8-4.12zm118.85 2.28c-1.94-.37-2.94-1.32-2.37-2.24.59-.96.3-1.18-.71-.55-3.07 1.89-1.8 3.85 2.36 3.64 3.52-.17 3.62-.29.72-.85zm188.68-1.16c12.38-2.92 41.25-2.75 53.72.31 6.61 1.63 11.48 1.99 15.54 1.17l5.92-1.2-4.44-1.15c-13.26-3.44-55.95-7.28-80.95-7.28-9.14 0-23.91 2.47-35.25 5.9-3.61 1.09-3.58 1.15 1.48 2.66 7.76 2.3 33.5 2.06 43.98-.41zm-350.72-1.45c12.05-1.37 12.43-1.66 9.72-7.34-2.16-4.53-2.64-4.76-7.86-3.81-6.94 1.27-20.15 10.39-17.46 12.06 1.03.63 3.2.88 4.84.56 1.63-.33 6.47-.99 10.76-1.47zm112.84-1.61c0-.36-.66-.65-1.48-.65-.81 0-1.48.71-1.48 1.57s.67 1.15 1.48.65c.82-.5 1.48-1.21 1.48-1.57zm42.19.83c-.51-.81-1.21-1.48-1.57-1.48s-.65.67-.65 1.48.7 1.48 1.56 1.48c.87 0 1.16-.67.66-1.48zm123.88-2.41c2.69-.5 3.72-1.44 3.17-2.87-.59-1.53-3.41-2.12-10.15-2.12-5.14 0-9.57-.62-9.84-1.38s-9.82-1.71-21.21-2.12c-11.4-.41-22.39-1.13-24.43-1.6-2.03-.48 1.21 1.59 7.21 4.58 6.96 3.47 14.2 5.84 19.98 6.52 8.8 1.05 27.13.53 35.27-1.01zm-348.87-2.42 5.92-2.2-8.14-.88c-4.48-.49-14.8-1.27-22.94-1.74s-17.3-1.23-20.35-1.71c-9.36-1.45-5.93 4.43 4.65 7.97 7.02 2.35 33.12 1.43 40.86-1.44zm239.05.14c0-.78-1.17-1.23-2.59-1.01-1.43.23-4.44-.82-6.71-2.32-4.59-3.06-6.16-2.76-3.53.65 3.6 4.68 12.83 6.61 12.83 2.68zm147.66-.38c.47-.47-6.42-.77-15.31-.67-15.77.17-15.98.21-8.78 1.92 6.9 1.64 21.99.85 24.09-1.25zm-293.18-.98c5.26-2.55 6.38-3.82 6.38-7.23v-4.13l-5.55 1.98c-3.05 1.09-7.01 2.01-8.79 2.04-4.27.09-5.24 1.94-3.47 6.61 1.76 4.63 3.19 4.72 11.43.73zm81.87-.77c0-.32-1-.58-2.22-.58s-2.22.65-2.22 1.43c0 .79 1 1.05 2.22.59 1.22-.47 2.22-1.12 2.22-1.44zm37.73.88c-.51-.83-1.55-1.13-2.31-.66-.75.47-1.37.04-1.37-.96s-.4-1.41-.89-.93c-1.37 1.38.8 4.05 3.28 4.05 1.22 0 1.8-.68 1.29-1.5zm7.7-.23c2.59 1.39 2.81 1.12 2.24-2.8-.79-5.38-4.31-5.69-6.26-.55-1.77 4.66-1.83 6.51-.13 3.82.95-1.49 2.01-1.61 4.15-.47zm-96.27-9.69c1.98-4.74 1.99-5.22.09-3.64-1.22 1.01-2.53 3.31-2.92 5.11-.39 1.81-1.18 4.62-1.76 6.25-.93 2.66-.87 2.7.63.36.93-1.44 2.71-5.07 3.96-8.08zm17.54 6.98c-.51-.81-1.21-1.48-1.57-1.48s-.65.67-.65 1.48.7 1.48 1.57 1.48c.86 0 1.15-.67.65-1.48zm101.39 0c0-.81-1.04-1.48-2.31-1.48s-1.89.67-1.39 1.48 1.54 1.48 2.31 1.48c.76 0 1.39-.67 1.39-1.48zm-51.81-3.05c0-.76-.66-1.39-1.48-1.39-.81 0-1.48 1.04-1.48 2.31s.67 1.89 1.48 1.39c.82-.5 1.48-1.54 1.48-2.31zm-112.05-2.15c9.58-1.25 18.34-4.36 16.11-5.73-.96-.6-1.75-1.75-1.75-2.57 0-.81.82-.97 1.83-.35 2.48 1.54 7.05 1.78 7.05.37 0-.63-.67-1.57-1.5-2.08s-1.07-1.63-.54-2.5c.54-.86.38-1.3-.34-.97s-4.31 2.03-7.98 3.78c-3.66 1.75-10.45 4.28-15.08 5.62-8.68 2.52-15.79 7.63-8.49 6.1 1.97-.41 6.78-1.16 10.69-1.67zm25.24-1.88c-.47-1.79-1.43-2.89-2.13-2.46-.71.44-.49 2.07.48 3.62 2.18 3.5 2.76 3.09 1.65-1.16zm45.37 1.25c0-2.49-2.63-3.1-3.5-.82-.52 1.34 0 2.21 1.32 2.21 1.2 0 2.18-.63 2.18-1.39zm-32.28-2.71c-.98-.33-1.47-1.11-1.08-1.73.39-.63-1.04-.81-3.17-.4-2.67.51-3.55.21-2.83-.96 1.63-2.63.31-1.99-2.39 1.16-2.35 2.74-2.25 2.82 2.63 2.02 3.4-.55 5.07-.24 5.07.94 0 1 .78 1.28 1.78.67 1.38-.86 1.38-1.24-.01-1.7zm52.6-4.32c.29-.87-.5-1.97-1.76-2.45-1.6-.62-2.28.03-2.28 2.16 0 3.04 3.05 3.26 4.04.29zm41.85 1.02c0-.82-1-1.48-2.22-1.48-1.23 0-2.22.66-2.22 1.48 0 .81.99 1.48 2.22 1.48 1.22 0 2.22-.67 2.22-1.48zm-72.53-2.96c-.87-1.63-1.87-2.96-2.22-2.96s-1.35 1.33-2.22 2.96c-1.4 2.6-1.13 2.96 2.22 2.96 3.34 0 3.61-.36 2.22-2.96zm-26.91-3.12c-1-.62-2.29-.83-2.87-.48-.58.36-1.33-.18-1.68-1.2-.49-1.47-1.12-1.45-3 .1-4.2 3.46-1.61 6.07 4.25 4.27 3.3-1.01 4.47-1.97 3.3-2.69zm47.04.56c-1.5-1.51-2.74.76-1.51 2.76.93 1.51 1.28 1.51 1.78 0 .35-1.03.23-2.27-.27-2.76zm22.05 2.56c.51-.82.46-2.22-.1-3.12-.99-1.61-3.52.86-3.58 3.49-.03 1.62 2.62 1.35 3.68-.37zm16.18.17c1.01-1.63-2.76-4.95-4.1-3.61-.54.53-.98 1.86-.98 2.94 0 2.21 3.82 2.71 5.08.67zm38.7.01c-1.1-1.78-6.77-3.16-6.77-1.65 0 1.34 2.61 2.65 5.64 2.83 1.06.07 1.57-.47 1.13-1.18zm-163.67-1.44c0-.69 1.5-1.92 3.33-2.74 3.21-1.43 3.11-1.6-2.59-4.54-6.49-3.36-21.75-18.11-18.73-18.11 1.04 0 1.47-.66.97-1.48-2.02-3.26 1.83-1.07 7.9 4.48 3.53 3.24 7.17 5.89 8.1 5.89 2 0-12.38-13.16-14.52-13.28-.82-.04-5.1-4.44-9.52-9.78-5.4-6.51-9.42-9.97-12.24-10.53-2.32-.46-4.56-1.42-5-2.13-1.36-2.19-3.59-1.42-3.59 1.24 0 1.39 2.5 5.15 5.56 8.36 3.05 3.21 4.55 5.49 3.33 5.07-1.23-.41-3.68-1.21-5.46-1.76l-3.24-1.02 3.45 6.82c4.02 7.94 24.11 28.17 31.79 32.01 5.68 2.84 10.46 3.53 10.46 1.5zm-25.35-27.98c-1.84-2.34-1.79-2.4.56-.55 2.46 1.93 3.25 3.14 2.03 3.14-.31 0-1.47-1.16-2.59-2.59zm102.32 27.76c0-.82-.67-1.48-1.48-1.48-.82 0-1.48.66-1.48 1.48 0 .81.66 1.48 1.48 1.48.81 0 1.48-.67 1.48-1.48zm70.24-1.58c-1.39-2.26-3.61-1.57-2.69.83.46 1.22 1.45 1.84 2.2 1.38.74-.46.96-1.46.49-2.21zm-97.62.1c.5-.82-.13-1.48-1.4-1.48s-2.3.66-2.3 1.48c0 .81.62 1.48 1.39 1.48.76 0 1.8-.67 2.31-1.48zm14.03-6.29c.02-.61-.97-1.11-2.19-1.11-2.51 0-2.6.26-1.28 3.7.76 1.97 1.2 2.07 2.2.49.69-1.08 1.26-2.47 1.27-3.08zm-22.92 1.85c-.5-.82-1.58-1.48-2.39-1.48s-1.07.66-.57 1.48c.51.81 1.59 1.48 2.4 1.48s1.07-.67.56-1.48zm60.82-4.07c-1.61-1.61-2.72.96-1.56 3.63 1.1 2.54 1.18 2.54 1.79-.05.35-1.49.25-3.1-.23-3.58zm93.86-5.75c3.29-4.09 5.92-9.12 5.92-11.31 0-1.06 3.33-5.21 7.4-9.22s7.4-8.48 7.4-9.93c0-3.65-2.22-3.31-5.47.82-4.25 5.4-27.26 21.69-30.68 21.72-2.26.01-2.54.35-1.09 1.28 1.55.98 1.09 2.15-2.06 5.3-3.26 3.26-3.65 4.31-1.99 5.36 1.14.72 1.5 1.32.8 1.33-.7.02.28 1.29 2.18 2.83 3.43 2.77 3.51 2.76 9.42-1.31 3.27-2.26 6.95-5.35 8.17-6.87zm-121.37 8.25c0-.86-.67-1.16-1.48-.65-.82.5-1.48 1.21-1.48 1.56 0 .36.66.66 1.48.66.81 0 1.48-.71 1.48-1.57zm-67.35-1.39c-.5-.82-1.91-1.48-3.13-1.48-1.23 0-1.81.66-1.31 1.48.5.81 1.91 1.48 3.14 1.48 1.22 0 1.8-.67 1.3-1.48zm44.32-.79c2.37-1.79 2.46-2.17.49-2.17-3.46 0-7.06 1.59-7.06 3.12 0 1.98 3.33 1.5 6.57-.95zm58.72-2.6c-1.21-1.21-1.65-1.04-1.65.62 0 2.95 1.99 4.94 2.73 2.73.31-.94-.18-2.44-1.08-3.35zm16.11 2.49c0-.32-.99-.58-2.22-.58-1.22 0-2.22.64-2.22 1.43s1 1.05 2.22.58c1.23-.47 2.22-1.11 2.22-1.43zm15.55.9c-.51-.82-1.21-1.48-1.57-1.48s-.65.66-.65 1.48c0 .81.7 1.48 1.56 1.48.87 0 1.16-.67.66-1.48zm-70.31-2.2c0-.22-1-1.23-2.22-2.24-1.86-1.54-2.22-1.33-2.22 1.25 0 2.14.68 2.83 2.22 2.24 1.22-.47 2.22-1.03 2.22-1.25zm12.92-.3c.29-.87-.5-1.97-1.76-2.45-1.6-.62-2.28.03-2.28 2.16 0 3.04 3.05 3.26 4.04.29zm32.96-.38c0-3.23-2.31-5.29-3.6-3.2-1.08 1.75.54 6.08 2.28 6.08.73 0 1.32-1.3 1.32-2.88zm34.05.78c0-1.15.83-2.43 1.85-2.85 1.39-.56 1.3-1.13-.37-2.29s-2.47-.91-3.23 1c-1.5 3.79-1.4 6.24.27 6.24.81 0 1.48-.95 1.48-2.1zm-114.72-.86c-.5-.82-1.2-1.48-1.56-1.48s-.66.66-.66 1.48c0 .81.71 1.48 1.57 1.48s1.16-.67.65-1.48zm58.18-4.23c-2.21-.84-3.12.93-1.95 3.79 1.01 2.48 1.15 2.46 2.2-.3.62-1.63.51-3.2-.25-3.49zm46.18 2.75c0-.82-.67-1.48-1.48-1.48-.82 0-1.48.66-1.48 1.48 0 .81.66 1.48 1.48 1.48.81 0 1.48-.67 1.48-1.48zm-82.88-2.21c-1.01-1.21-2.43-1.83-3.17-1.38-1.89 1.17-.08 3.59 2.69 3.59 1.88 0 1.97-.42.48-2.21zm41.4-3.01c-.98-1.18-2.42-1.76-3.19-1.28-.79.49-.25 2.16 1.24 3.8 2.98 3.29 4.82.93 1.95-2.52zm69.77.96c1.94-1.53 4.08-2.8 4.76-2.84.68-.03 1.57-.39 1.98-.81 1.42-1.41-6.2.02-9.52 1.8-3.26 1.74-4.53 4.63-2.03 4.63.7 0 2.87-1.25 4.81-2.78zm42-1.79c7.78-4.71 14.08-12.19 14.08-16.71 0-1.42-.67-2.17-1.48-1.67-.82.51-1.48-.2-1.48-1.56 0-2.29-.31-2.28-4.08.12-6.87 4.38-13.32 12.96-15.82 21.06-1.35 4.37-.21 4.21 8.78-1.24zm-171.8-.24c-.63-1.97-.39-2.62.7-1.95.92.57 1.63.03 1.63-1.25 0-1.4-.84-1.94-2.22-1.41-1.22.47-2.22 1.75-2.22 2.84s-1.1 2.6-2.44 3.36c-1.98 1.1-1.69 1.37 1.52 1.37 3.29 0 3.81-.51 3.03-2.96zm25.99 1.07c-1.03-1.24-2.26-1.87-2.73-1.4s.12 1.48 1.32 2.23c3.13 1.99 3.54 1.74 1.41-.83zm18.53.78c-.5-.82-1.21-1.48-1.57-1.48s-.65.66-.65 1.48c0 .81.7 1.48 1.57 1.48.86 0 1.15-.67.65-1.48zm-33.3-4.29c0-3.12-3.84-5.29-5.26-2.99-1 1.62 1.86 5.8 3.96 5.8.71 0 1.3-1.27 1.3-2.81zm23.68-3.57c0-1.18 1-2.97 2.22-3.99 3.25-2.69 2.71-4.71-1.11-4.16-2.49.35-3.24 1.34-2.96 3.89.21 1.98-.26 3.02-1.12 2.49-1.91-1.18-3.55 2.99-2.37 6.04.79 2.07 1.13 2.08 3.11.1 1.23-1.22 2.23-3.19 2.23-4.37zm33.46 2.34c-.5-.5-.85.38-.78 1.94.07 1.72.42 2.07.89.89.43-1.07.38-2.34-.11-2.83zm17.14 3.02c-1.07-.42-2.34-.37-2.84.12-.49.49.39.84 1.95.78 1.72-.07 2.07-.42.89-.9zm-63.46-3.87c-1.92-3.12-1.62-7.65.69-10.29 1.37-1.57 1.61-2.59.59-2.59-.91 0-2.75 2.09-4.07 4.65-1.98 3.83-2.08 5.23-.55 8.09 1.01 1.89 2.42 3.09 3.12 2.65.71-.43.81-1.56.22-2.51zm36.97-1.04c.43-1.62.17-2.96-.57-2.96s-1.34 1.34-1.34 2.96c0 1.63.26 2.97.57 2.97s.91-1.34 1.34-2.97zm18.75-.12c-.91-1.7-2.02-2.73-2.46-2.29-1.22 1.22.73 5.38 2.53 5.38 1.09 0 1.07-.95-.07-3.09zm45.1-1.43c9.19-6.21 9.42-6.91 3.66-11.39-1.96-1.53-2.83-1.28-5.14 1.48-1.52 1.83-1.83 2.49-.67 1.47 1.16-1.01 2.64-1.85 3.29-1.85 2.91 0 .62 3.99-3.97 6.91l-5.03 3.2-.46-3.09c-.68-4.63-3.37-4.64-5.03-.01-1.45 4.07-.9 4.73 6.35 7.68.17.06 3.31-1.92 7-4.4zm-79.67-4.96c-.5-2.78-.13-3.46 1.53-2.82 1.2.46 1.84 1.75 1.41 2.86-.43 1.12-.27 3.4.35 5.06 1 2.71 1.5 2.36 4.73-3.33 1.98-3.49 3.44-6.89 3.24-7.55-.2-.65.76-2.31 2.13-3.68 2.34-2.33 2.43-2.1 1.49 3.75l-.99 6.24 4.45-.9c3.83-.76 4.45-.45 4.45 2.26 0 1.73.7 3.14 1.55 3.14s1.43-.83 1.3-1.85c-.67-5.19.28-14.43 1.5-14.43.76 0 1.01 2.33.55 5.18-.95 5.85.43 6.89 2.46 1.85 1.07-2.68 1.35-2.81 1.43-.65.06 1.64.76 2.27 1.8 1.62 1.02-.63 1.31-.41.72.55-.55.89.68 3.42 2.73 5.63 4.19 4.52 4.89 3.78 1.42-1.51-1.53-2.33-1.77-3.84-.74-4.48.86-.53 1.56-2.4 1.56-4.15 0-2.88.23-2.97 2.3-.9 1.26 1.27 2.5 4.21 2.75 6.54.56 5.29 3.61 6.66 3.31 1.5-.12-2.08-.64-3.77-1.15-3.78-.52 0-1.29-1.33-1.71-2.96-.86-3.25 1.13-5.41 2.67-2.91.69 1.11 1.54 1.11 2.89-.01 1.42-1.18 2.16-.96 2.85.83.59 1.55 1.99 2.15 3.87 1.66 1.62-.42 2.95-.05 2.95.82s.42 1.16.95.64c.52-.53.09-1.99-.95-3.25-1.05-1.26-1.48-2.72-.95-3.24.52-.52.97-.01.99 1.15.04 1.74.35 1.72 1.85-.13 1-1.22 3.14-3.18 4.77-4.37 2.35-1.7 2.58-1.72 1.11-.07-2.4 2.69-2.36 4.44.12 4.44 2.53 0 5.48-9.38 3.78-12.05-.91-1.44-1.3-.96-1.38 1.69-.12 3.69-.13 3.69-1.46.37-1.78-4.44-2.34-4.24-5.26 1.91-2.36 4.96-4.98 6.09-6.13 2.63-.29-.87 1.31-3.82 3.55-6.57 3.57-4.37 3.64-4.63.55-2.04-2.76 2.32-3.34 2.45-2.66.59.97-2.7-5.25-10.21-8.46-10.21-1.13 0-3.19 1.13-4.57 2.52-2.68 2.67-9.53 3.47-9.55 1.11-.04-3 3.31-10.2 3.96-8.52.38.97-.02 3.09-.89 4.72-1.34 2.49-1.14 2.91 1.28 2.73 1.57-.12 2.63-.58 2.35-1.04-.28-.45.48-2.47 1.68-4.5 1.98-3.34 2.12-3.38 1.51-.46-.47 2.28-.07 2.99 1.37 2.44s1.62-1.53.62-3.39c-.77-1.44-.95-3.08-.39-3.63.56-.56-.24-.54-1.77.05-2.1.81-2.49.58-1.58-.89s.43-1.76-1.86-1.16c-2.09.54-2.86.21-2.37-1.05.39-1.03-.62-2.21-2.24-2.63-1.74-.46-3.27.07-3.73 1.28-1.26 3.28-4.17 2.44-3.11-.9.84-2.63.23-2.99-5.45-3.19-17.59-.61-21.93-.52-21.93.5 0 .62-1.01.73-2.24.26-1.23-.48-3.23-.04-4.44.96-1.7 1.41-2.68 1.43-4.31.09-1.72-1.44-1.96-1.2-1.29 1.33.72 2.76.41 2.93-2.96 1.65-2.97-1.14-3.94-.94-4.67.96-.5 1.31-.06 2.97.99 3.69 1.34.92 1.03 1.17-1.06.85-1.63-.25-3.62-1.95-4.42-3.78-2.02-4.59-3.47-4.16-2.54.75.7 3.68.53 3.87-1.72 2.01-1.37-1.14-2.92-1.63-3.45-1.11-.52.52-.16.95.8.95.97 0 2.87 2.33 4.22 5.18 1.36 2.85 3.35 5.18 4.42 5.18s1.95 1.12 1.95 2.48c0 2.05-.64 1.88-3.7-1-3.63-3.41-5.42-2.31-1.93 1.18 1.38 1.39 1.08 1.78-1.37 1.78-2.14 0-3.32 1.08-3.67 3.33-.28 1.83-1.37 3.15-2.43 2.93-1.06-.23-1.49.3-.95 1.17 1.11 1.79 6.86.4 8.42-2.03.56-.89 1.51-1.13 2.1-.54s2.12.12 3.41-1.05c2.07-1.87 2.36-1.68 2.57 1.71.15 2.64-.16 3.19-1.03 1.78-1.47-2.38-1.69-2.15-3.87 4.05-1.21 3.47-1.21 5.16.03 6.51 1.26 1.36 1.24 1.57-.07.84-.96-.54-2.1-.42-2.53.27-.78 1.27 1.48 1.8 7.61 1.79 3.77 0 4.47 2.17 1.11 3.46-1.22.47-2.22 2-2.22 3.39 0 2.08.74 1.84 4.07-1.34 5-4.77 9.85-3.27 8.38 2.59-.49 1.94-.4 4.33.19 5.29 1.64 2.65 3.86-2.16 3.05-6.62zm5.67-.15c.58-2.44 1.66-5.06 2.4-5.82.78-.79.75.7-.06 3.53-1.8 6.28-3.74 8.18-2.34 2.29zm10.87-6.07c.94-4.92 3.29-6.04 3.29-1.57 0 1.99-.89 3.97-1.99 4.39-1.42.55-1.79-.25-1.3-2.82zm4.79 1.35c.02-1.47.67-3.68 1.46-4.9 1.12-1.73 1.44-1.35 1.46 1.77.01 2.19-.64 4.39-1.46 4.89-.81.51-1.47-.29-1.46-1.76zm-28.76-19.17c-.53-1.39.27-3.38 1.93-4.83 2.79-2.41 2.77-2.52-.71-5.63-4.03-3.58-4.63-6.35-1.38-6.35 3.11 0 6.72 7.73 5.61 11.98-1.36 5.23-4.3 7.83-5.45 4.83zm49.46-.44c0-.86.67-1.57 1.48-1.57.82 0 1.48.29 1.48.65s-.66 1.07-1.48 1.57c-.81.5-1.48.21-1.48-.65zm11.48-1.82c-3.13-3.27-3.25-4.19-.55-4.19 1.13 0 2.43 1.47 2.9 3.27 1.09 4.14.82 4.25-2.35.92zm-76.2.84c.49-.49 1.77-.55 2.83-.12 1.19.47.83.82-.89.89-1.56.07-2.43-.28-1.94-.77zm9.94-5.8c-1.36-1.63-1.46-2.78-.36-3.88s1.87-.61 2.59 1.65c1.31 4.13.23 5.21-2.23 2.23zm25.19 1.78c-.01-.66.64-2.42 1.44-3.9 1.14-2.14.83-2.86-1.48-3.47-1.65-.43-2.98-.01-3.05.95-.08 1.25-.3 1.24-.83-.04-.39-.96.37-3.84 1.7-6.4 2.4-4.65 2.41-4.66 5.05-1.61 1.45 1.67 3.07 2.61 3.6 2.09.53-.53.94-.35.92.39-.06 1.73-7.34 13.61-7.35 11.99zm9.88-1.59c-1.06-2.76 1.99-14.22 3.78-14.22 1.32 0 .41 8.14-1.48 13.19-1.13 3.04-1.47 3.19-2.3 1.03zm-21.66-3.12c-.06-2.44-.51-5.94-1-7.77s-.23-3.33.59-3.33c2 0 3.21 8.88 1.72 12.58-1.01 2.5-1.21 2.27-1.31-1.48zm17.81 1.6c-.07-1.56.28-2.43.78-1.94.49.49.54 1.77.11 2.84-.47 1.18-.82.83-.89-.9zm9.97-.19c-.44-.78.46-3.41 2.01-5.85l2.82-4.44-1.04 4.44c-.99 4.21-.9 4.32 1.79 2.22 2.62-2.05 2.68-2.02.82.35-1.11 1.42-2.56 2.25-3.21 1.84-.65-.4-1.45.08-1.78 1.06-.34 1-.95 1.17-1.41.38zm34.32 38c0-1.38-6.08-4.97-6.94-4.1-.41.4-.32 2.05.19 3.65.64 2.02 1.83 2.69 3.84 2.16 1.6-.42 2.91-1.19 2.91-1.71zm-79.93-1.84c0-.81-.67-1.07-1.48-.57-.82.51-1.48 1.59-1.48 2.4s.66 1.07 1.48.56c.81-.5 1.48-1.58 1.48-2.39zm-23.27-.94c-.85-2.26-.66-2.33 1.53-.55 4.63 3.76 2.92-2.46-2-7.27-5.82-5.69-8.37-5.65-4.14.06 2.54 3.45 2.89 4.85 1.52 6.22-2.59 2.59-2.16 4.13 1.15 4.13 2.16 0 2.66-.67 1.94-2.59zm11.43-3.24c0-2.9-2.51-5.48-3.94-4.05-1.16 1.17.96 6.92 2.56 6.92.75 0 1.38-1.29 1.38-2.87zm92.62-1.33c-3.16-.61-4.44.51-3.09 2.7.73 1.18 1.67 1.11 3.34-.27 2.09-1.74 2.06-1.98-.25-2.43zm-11.03-1.24c-1.75-3-2.17-2.04-.74 1.69.51 1.32 1.23 2.09 1.61 1.71.39-.38-.01-1.91-.87-3.4zm-98.62-.48c-.5-.81-1.91-1.48-3.13-1.48s-1.81.67-1.31 1.48c.51.82 1.92 1.48 3.14 1.48s1.81-.66 1.3-1.48zm122.12-2.8c0-1.72-4.33-3.36-6.06-2.29-2.61 1.61-1.3 3.61 2.36 3.61 2.03 0 3.7-.59 3.7-1.32zm-102.18-3.07c1.97-1.71 3-3.85 2.49-5.18-.55-1.43-.03-2.27 1.39-2.27 1.24 0 1.86-.65 1.37-1.45-.57-.92-1.93-.81-3.7.3-1.53.96-2.51 2.21-2.16 2.77.35.57-1.08 1.46-3.18 1.99-2.93.73-3.45 1.4-2.23 2.88.88 1.06 1.16 2.36.63 2.9-2.39 2.39 2.37.67 5.39-1.94zm-7.93-2.64c2.34-3.09 2.7-6.86.51-5.51-.85.53-2.49.18-3.63-.78-2.38-1.97-5.73-.6-4.28 1.74.61.99 1.4.83 2.22-.47.97-1.53 1.28-1.35 1.29.77.02 2.29-.74 2.62-4.42 1.88-5.56-1.11-5.83 1.25-.37 3.24 5.77 2.11 6.47 2.04 8.68-.87zm173.76-11.02c0-3.06-.51-4.23-1.44-3.31-.78.79-1.04 2.92-.56 4.74 1.22 4.66 2 4.1 2-1.43zm-281.24.94c0-.35-1.04-.65-2.3-.65-1.27 0-1.89.68-1.38 1.51.84 1.36 3.68.71 3.68-.86zm8.34-2.89c-.46-1.21-1.82-1.77-3.1-1.28-2.92 1.12-2.96 3.52-.06 3.52 1.22 0 2.28.83 2.34 1.85.09 1.43.29 1.42.88-.05.42-1.04.39-2.86-.06-4.04zm90.83-1.46c-1.04-1.26-2.23-1.96-2.64-1.55-.4.41.12 1.77 1.16 3.03 1.05 1.26 2.24 1.96 2.65 1.55.4-.4-.12-1.77-1.17-3.03zm190.55 1.77c-.73-2.17-4.35-2.34-5.05-.23-.28.84.87 1.63 2.56 1.76 1.8.14 2.83-.5 2.49-1.53zm-290.31-8.18c-.28-3.9-2.68-6.81-8.6-10.41-3.02-1.83-8.68-5.97-12.58-9.2-6.39-5.291-17.41-10.038-19.18-8.264-1.23 1.222 2.99 7.424 10.6 15.594 11.16 11.98 30.3 19.88 29.76 12.28zm305.21 2.07c4.97-2.62 26.94-28.833 26.94-32.126 0-6.165-24.05 14.076-30.24 25.446-2.09 3.84-3.8 7.39-3.8 7.89 0 1.52 2.88 1.03 7.1-1.21zm-101.25-.59c.42-.68-.2-1.24-1.39-1.24-1.18 0-2.15.56-2.15 1.24s.62 1.23 1.39 1.23c.76 0 1.73-.55 2.15-1.23zm9.64-10.74c2.78-1.69 6.82-4.85 8.97-7.02 5.17-5.2 12.86-19.017 11.4-20.479-.63-.632-1.69-.275-2.35.794-1.74 2.805-2.99-4.778-1.29-7.808.72-1.299.78-2.349.13-2.333-1.31.033-10.8 15.706-10.8 17.851 0 .749-.67 1.362-1.48 1.362-.82 0-1.48 1.066-1.48 2.369 0 1.302-2.33 4.704-5.18 7.544-2.85 2.85-5.18 6.45-5.18 8 0 3.56 1.03 3.52 7.26-.28zm-255.93-17.633c0-.814-.71-1.48-1.57-1.48s-1.16.666-.65 1.48c.5.814 1.21 1.481 1.57 1.481.35 0 .65-.667.65-1.481zm157.17-1.011c-1.06-.427-2.34-.375-2.83.117-.5.492.38.842 1.94.778 1.72-.071 2.07-.422.89-.895zm81.89-3.238c3.59-.231 6.94-5.106 5.71-8.318-.62-1.604-1.87-2.01-4.05-1.312-2.67.856-7.47 1.529-16.85 2.366-2.63.236-2.3 1.358 1.43 4.865 1.81 1.692 4.97 2.967 7.03 2.833 2.07-.134 5.09-.329 6.73-.434zm-240.26-1.202c-1.07-.428-2.35-.375-2.84.117-.49.491.38.841 1.94.777 1.73-.071 2.08-.422.9-.894zm167.42-1.398c2.61-1.324 4.92-2.56 5.14-2.745s-.24-1.932-1.02-3.882c-.92-2.299-1.45-2.69-1.51-1.114-.12 3.13-3.11 4.221-11.68 4.262l-6.91.033 3.7 2.895c4.53 3.547 6.24 3.624 12.28.551zm47.67.918c.51-.82-.15-1.901-1.46-2.403-2.83-1.087-4.41.111-3.05 2.315 1.23 1.989 3.31 2.03 4.51.088zm-22.95-2.95c0-.814-1.17-1.47-2.59-1.457-2.21.019-2.27.231-.37 1.457 2.79 1.806 2.96 1.806 2.96 0zm10.36-7.4c-1.73-3.232-3.74-3.803-5.19-1.468-.71 1.158 2.78 3.539 6.35 4.334.24.052-.29-1.238-1.16-2.866zm81.41 1.392c0-.862-.67-1.156-1.48-.652-.81.503-1.48 1.208-1.48 1.567s.67.653 1.48.653 1.48-.706 1.48-1.568zm-94.73-1.392c0-.815-1.5-1.434-3.33-1.377-3.18.1-3.2.163-.37 1.377 1.63.699 3.13 1.318 3.33 1.376.2.057.37-.562.37-1.376zm19.98-5.921c-.5-.814-1.21-1.48-1.57-1.48-.35 0-.65.666-.65 1.48s.71 1.48 1.57 1.48 1.16-.666.65-1.48zm82.4-3.748c3.86-.743 11.59-7.842 11.59-10.643 0-1.097 1.08-3.637 2.39-5.643 2.26-3.445 2.23-3.649-.47-3.649-3.98 0-19.68 15.371-19.68 19.265 0 1.712.66 2.702 1.48 2.201.81-.501 2.92-1.19 4.69-1.531zm-69.16-15.07c1.41-3.683.43-3.459-5.11 1.158l-5.17 4.315 4.69-1.572c2.58-.864 5.1-2.62 5.59-3.901zm196.93-25.611c-.51-.828-1.55-1.121-2.31-.653-2.05 1.269-1.67 2.157.93 2.157 1.27 0 1.89-.677 1.38-1.504zm-230.71 431.04c-.58-.94-.72-6.88-.33-13.21l.73-11.5-1.54 10.73c-.85 5.9-2.14 10.36-2.88 9.9-.74-.45-1.34-1.79-1.34-2.96s-.67-2.13-1.48-2.13c-.82 0-1.58-2.17-1.7-4.81-.21-4.48-.27-4.53-.84-.74-.99 6.54-4.79 5.16-4.08-1.48.5-4.68.31-4.41-1.25 1.7-1.07 4.19-3.15 8.12-4.93 9.3-2.89 1.91-3.05 1.81-2.39-1.6.45-2.38 1.42-3.36 2.78-2.84 1.41.54 1.8.06 1.2-1.49-.48-1.26-1.71-1.98-2.73-1.59-1.3.5-1.7-.72-1.36-4.16.27-2.68.1-4.04-.37-3.01-.48 1.02-1.41 1.52-2.08 1.1-.67-.41-.87.58-.45 2.2.49 1.87-.1 3.28-1.62 3.86-1.31.5-2.38 1.88-2.38 3.06 0 1.19-.72 1.71-1.58 1.18-.87-.54-1.3-1.75-.95-2.68 2.38-6.33 2.46-7.87.43-7.87-1.18 0-2.54 1.58-3.03 3.51-.48 1.94-1.49 3.14-2.23 2.69-.74-.46-2.03.34-2.87 1.79-2.07 3.56-2.09-.39-.01-4.27.88-1.64 1.23-3.36.78-3.81s-1.49.94-2.31 3.09c-.81 2.15-1.79 3.91-2.17 3.91-.7 0-.59-.66 1.9-10.73 1.86-7.56 0-6.99-3.99 1.22-1.82 3.75-4.09 6.5-5.1 6.17-2.46-.82-2.32-4.91.14-4.4 1.08.23 1.59-.2 1.12-.95-.46-.75.15-3.27 1.36-5.59 2.56-4.91 2.85-7.93.74-7.93-.81 0-1.48.56-1.48 1.23 0 2.19-9.11 15.06-10.65 15.06-.84 0-1.04-1.15-.46-2.59.57-1.43 1.43-3.59 1.91-4.81.49-1.23-.96-.23-3.21 2.22l-4.1 4.44 2.63-4.77c1.45-2.62 2.19-5.2 1.66-5.73-1.46-1.46-5.54.52-5.52 2.68.02 1.35.43 1.27 1.4-.28.76-1.2 1.75-1.81 2.21-1.35s-.62 2.1-2.39 3.66c-1.78 1.55-2.74 1.99-2.15.98.6-1.02.4-1.85-.43-1.85-.84 0-1.17-.94-.73-2.07.95-2.47-1.76-4.56-3.09-2.4-1.33 2.15-3.27 1.86-4.23-.64-.54-1.41-.11-1.87 1.26-1.34 1.35.51 2.42-.54 3.04-2.99.52-2.08 2.21-4.18 3.76-4.67s2.79-2.02 2.77-3.39c-.03-1.76-1.53-.88-5.2 3.06-5.49 5.91-6.99 6.83-5.71 3.48.44-1.13.08-2.51-.79-3.04-.89-.55-1.62.19-1.68 1.7-.1 2.37-.24 2.34-1.29-.29-.78-1.97-.34-4.19 1.34-6.66 3.6-5.28 5.13-8.66 2.4-5.28-1.28 1.56-2.81 2.36-3.41 1.76s-1.88 1.11-2.86 3.81c-1.02 2.81-1.82 3.75-1.89 2.21-.06-1.48.61-4.03 1.48-5.67 2.06-3.84.56-8.45-1.93-5.95-2.56 2.56-6.06 2.16-5.02-.57.51-1.32.26-1.92-.58-1.4-2.02 1.25-1.83-1.67.33-5.14 2.7-4.31-.14-5.75-3.4-1.73-1.56 1.92-2.83 2.77-2.83 1.89s2-3.08 4.44-4.88c2.44-1.81 4.44-4.29 4.44-5.51 0-1.69-.53-1.53-2.17.65-1.2 1.58-2.2 2.29-2.22 1.58-.03-.71-1.05-.46-2.27.55-1.84 1.53-2.23 1.37-2.24-.93-.02-2.33-.25-2.41-1.45-.55-1.02 1.6-1.25.84-.81-2.7.58-4.67 7.1-15.06 9.46-15.06 2.58 0 4.66 3.91 4.68 8.81.02 2.89.7 6.25 1.52 7.47 1.03 1.54 1.29-1.86.86-11.1-.35-7.33-.34-11.32.03-8.88 1.2 8.08 2.5 9.16 3.55 2.96l1-5.92.31 5.92c.18 3.26.92 7.25 1.66 8.88 1.07 2.34 1.33 1.72 1.24-2.96-.19-9.85.08-11.1 2.39-11.1 2.54 0 2.67 1.45.84 9.36-1.08 4.62-.93 5.51.77 4.85 1.58-.6 2.09.62 2.09 4.99 0 3.18.71 6.23 1.58 6.76.87.54 1.25 1.85.84 2.91-.4 1.06.2 3.15 1.34 4.66 1.89 2.49 2.09 2.22 2.27-3.19.1-3.25.32-9.92.49-14.8.16-4.88 1.11-10.21 2.1-11.84 1.56-2.55 1.68-2.2.87 2.59-.9 5.31 1.14 7.94 2.85 3.7.57-1.4.78-1.42.87-.05.06.99 1.11 1.42 2.33.95 2.59-.99 3.13 3.18.61 4.73-2.17 1.34-.24 11.4 2.48 12.94 1.15.66 2.09 2.27 2.09 3.58 0 1.32.32 2.08.7 1.7s.16-4.12-.51-8.31c-.66-4.19-.65-8.48.03-9.54 1-1.58 1.22-1.58 1.24.01.01 1.06.72 1.51 1.56.98 1-.61 1.21.37.61 2.77-.51 2.04-.2 4.93.7 6.41 1.28 2.13 1.55.75 1.27-6.45-.2-5.04.13-9.64.72-10.24.6-.6 1.09.69 1.09 2.86 0 2.76.78 3.96 2.59 4 2.46.04 2.46.11 0 1.55-2.85 1.65-3.67 10.88-1.11 12.46 1.44.89 2.12-3.05 1.52-8.72-.21-1.97.37-2.54 2-1.91 1.85.71 2.13.06 1.46-3.32-.52-2.6-.13-4.63 1.04-5.35 1.3-.81 1.61-.47 1 1.11-.48 1.26.05 4.05 1.17 6.21 1.21 2.33 1.37 3.52.4 2.92-.91-.56-1.3-.41-.88.32 1.64 2.84 5.4 11.9 6.71 16.14.75 2.44 2.38 4.64 3.63 4.88 1.99.39 2.04-.42.39-6.66-2.97-11.19-3.83-12.86-5.41-10.55-.99 1.45-1.23 1.18-.88-.99.26-1.63 1.12-2.84 1.93-2.69.8.14 1.99-.7 2.65-1.88.99-1.76 1.54-1.79 3.14-.19 1.06 1.07 2.42 3.45 3 5.29 1.03 3.25 1.17 3.28 5.01.8 4.26-2.74 6.41-5.56 7.77-10.21.47-1.63 1.37 2.54 2 9.26 1.17 12.51 3.79 18.27 3.79 8.32 0-6.07 2.87-15.36 4.74-15.36.65 0 1.18-1.33 1.18-2.96s.5-2.96 1.11-2.96 1 3.5.87 7.77c-.24 7.53-.21 7.59.9 1.85.84-4.37 1.22-4.95 1.46-2.22.29 3.45.4 3.5 1.64.74.93-2.07 1.13-.82.66 4.14-.42 4.46-.13 6.77.78 6.21.81-.5 1.46-1.59 1.46-2.43s1.33-3.23 2.96-5.3c1.72-2.18 2.97-2.9 2.99-1.71.01 1.23.45 1.46 1.11.57.59-.81 2.16-2.32 3.48-3.35 2.02-1.57 2.4-1.46 2.39.74-.03 5.47.46 6.6 2.49 5.82 1.56-.6 2.35 1.1 3.12 6.7 1.02 7.4 3.59 7.55 3.64.21.01-1.77.71-3.44 1.56-3.72.84-.28 2.05-4.83 2.68-10.12l1.16-9.6.64 7.77c.36 4.28.15 7.77-.47 7.77-1.47 0-1.23 7.38.37 11.1 1.27 2.95 1.28 2.95 1.38-.04.06-1.65 1.44-4.14 3.07-5.54 1.62-1.39 2.98-4.03 3.01-5.87.04-3.12 4.5-10.01 6.47-10.01.48 0 .88.92.88 2.04s1 2.87 2.22 3.88 2.22 3.43 2.22 5.36c0 7.21 2.62 3.2 3.74-5.73 1.02-8.07 1.3-8.68 2.24-4.81.82 3.4 1.11 3.68 1.24 1.2.1-1.79.68-3.56 1.29-3.93.61-.38.88 2.58.6 6.57-.31 4.32.1 7.26 1.01 7.26 2.05 0 3.68-5.53 3.46-11.7-.18-4.7-.04-4.85 1.95-2.22 1.29 1.7 2.15 6.31 2.18 11.63.07 13.61 3.33 7.99 3.84-6.63.41-11.93 1.89-17.8 2.38-9.46.14 2.38.38 5.65.53 7.28.16 1.63.38 4.5.49 6.38.13 2.06.85 3.02 1.83 2.41.89-.55 1.29-2.71.89-4.8-.96-5.05.35-8.75 2.11-5.96.86 1.35 1.26.69 1.28-2.1.01-2.24.69-4.07 1.5-4.07s1.48.69 1.48 1.54c0 1.94 4.57 1.25 7.02-1.05 1.16-1.09 1.49-3.48.89-6.47-.94-4.7-.93-4.72 2.2-2.03 2.19 1.87 2.62 3.02 1.43 3.76-2.73 1.68 1.61 5.98 4.95 4.92 1.57-.5 2.75-.15 2.75.8 0 .91.84 1.24 1.85.72 1.02-.51.28.45-1.64 2.14-2.67 2.34-2.94 3.07-1.13 3.07 1.57 0 2.25 1.12 2.02 3.33-.41 3.8-2.78 7.05-4.43 6.05-1.81-1.1-1.26 3.2.67 5.13 1.38 1.38 1.13 1.77-1.13 1.77-3.06 0-7.29 5.14-7.3 8.88-.01 1.23-1.33 2.22-2.97 2.22-2 0-2.82.85-2.52 2.59.27 1.66-.52 2.6-2.22 2.62-1.94.01-2.15.34-.76 1.22 3.04 1.93.61 5.93-3.1 5.12-2.46-.53-2.74-.35-1.15.77 1.66 1.17 1.35 1.59-1.48 2.02-1.96.29-3.4 1.35-3.2 2.35.64 3.13-3.82 1.97-4.85-1.26-.53-1.69-1.31-2.73-1.73-2.31s.19 2.66 1.35 4.98c3.11 6.24 1.65 8.78-2.7 4.7-3.35-3.15-3.55-3.18-3.72-.48-.09 1.56-.08 3.63.04 4.58.12.96-.47 2.17-1.3 2.68-.84.52-1.52-.08-1.52-1.32 0-1.4-.85-1.94-2.22-1.41-1.43.55-2.22-.03-2.22-1.61 0-1.36-.64-2.08-1.42-1.59-1.6.99-.33 5.43 2.01 6.99 2.99 1.99-.12 2.61-4.03.8-2.18-1.01-3.65-2.66-3.28-3.67.38-1-.08-1.67-1.02-1.48-.94.2-1.98-.98-2.31-2.6-.33-1.63-1.27-3.63-2.09-4.44-1-1-1.19-.03-.57 2.96 2.21 10.52 2.44 13.37.92 11.1-.82-1.22-1.5-3.68-1.51-5.47-.01-1.78-.73-3.68-1.6-4.21-1.07-.67-1.24.79-.53 4.56.64 3.44.49 5.21-.39 4.66-.78-.48-1.37.59-1.31 2.38.09 2.74-.65 3.22-4.61 3.05-4.41-.19-4.62.02-3.33 3.41 2.04 5.38-.86 2.84-3.21-2.8l-2.02-4.84-.76 4.32c-.42 2.37-1.69 4.62-2.82 5-1.16.38-1.64.01-1.11-.86 1.17-1.88-.36-6.24-2.17-6.24-.73 0-1.21.5-1.07 1.11s-.96 4.01-2.45 7.57c-2.67 6.38-2.72 6.41-4.58 2.96-1.03-1.93-2.42-3.3-3.1-3.04-.67.25-1.66-1.09-2.19-2.97-.71-2.5-1-1.74-1.11 2.88-.08 3.46-.86 6.29-1.73 6.29s-1.2-1.2-.73-2.67c.46-1.47-.12-3.96-1.31-5.55-2.12-2.84-2.14-2.84-1.4.11.41 1.65-.34 4.98-1.68 7.4l-2.43 4.41.88-7.5c.58-4.9.14-9.53-1.25-13.33l-2.13-5.81-.11 11.38c-.09 10.6-2.03 16.44-3.46 10.47-.53-2.18-.87-2.02-2.09.97-.93 2.29-1.84 2.97-2.51 1.89zm23.66-20.61c-1.51-1.51-2.75.76-1.52 2.76.94 1.5 1.29 1.51 1.79 0 .34-1.03.22-2.27-.27-2.76zm27.23-3.66c0-3.44-.45-4.29-1.63-3.11-.9.9-1.18 3.03-.64 4.74 1.41 4.45 2.27 3.84 2.27-1.63zm-76.97.95c0-1.27-.67-1.9-1.48-1.39-.82.5-1.48 1.54-1.48 2.3 0 .77.66 1.4 1.48 1.4.81 0 1.48-1.04 1.48-2.31zm91.72-11.02c0-1.97-.16-1.97-1.43 0-.79 1.23-1.44 3.22-1.44 4.45 0 1.97.16 1.97 1.44 0 .79-1.23 1.43-3.22 1.43-4.45zm13.96-5.67c.42-.68-.21-1.23-1.4-1.23-1.18 0-2.15.55-2.15 1.23s.63 1.23 1.39 1.23c.77 0 1.74-.55 2.16-1.23zm-84.81-13.66c-1.37-3.42-1.45-3.44-1.54-.4-.05 1.77.39 4.43.98 5.92.87 2.23 1.14 2.3 1.53.4.26-1.27-.18-3.94-.97-5.92zm95.32 4.53c-.5-.81-1.21-1.48-1.57-1.48s-.65.67-.65 1.48c0 .82.71 1.48 1.57 1.48s1.15-.66.65-1.48zm-73.27-6.4c0-.73-1-.93-2.22-.46-1.56.6-2.23-.13-2.24-2.43-.01-1.81-.67-4.29-1.46-5.51-1.03-1.59-1.44-.1-1.46 5.31-.01 4.13.37 7.91.85 8.38 1.03 1.04 6.53-3.42 6.53-5.29zm10.31-4.8c-1-1.87-1.47-4.74-1.05-6.37.46-1.75-.06-3.28-1.28-3.75-1.63-.62-2.04 1.14-1.95 8.42.06 5.84.51 8.15 1.23 6.32 1.05-2.68 1.2-2.63 2.27.74 1 3.17 1.24 3.27 1.88.84.4-1.53-.1-4.32-1.1-6.2zm-67.05.47c-.42-1.02-.75-.18-.75 1.85 0 2.04.33 2.87.75 1.85.41-1.02.41-2.68 0-3.7zm34.08-5.18c-.37-1.42-.68-.26-.68 2.59s.31 4.02.68 2.59c.37-1.42.37-3.75 0-5.18zm66.03 0c.35-.61 1.03-2.81 1.53-4.88.77-3.27.41-3.78-2.76-3.78-2.47 0-3.65.83-3.65 2.55 0 5.4 3.1 9.29 4.88 6.11zm-117.24-9.34c-.76-3.87-1.35-5.05-1.43-2.87-.16 4 1.34 10.81 2.19 9.96.29-.29-.06-3.48-.76-7.09zm-36.69-1.47c.65-2.49.41-2.73-1.29-1.32-1.15.96-1.72 2.33-1.28 3.05 1.21 1.95 1.69 1.63 2.57-1.73zm197.31-3.96c-.5-.49-.85.38-.78 1.94.07 1.73.42 2.08.89.9.43-1.07.38-2.35-.11-2.84zm-192.43-5.92c-.49-.49-.84.38-.77 1.94.07 1.73.42 2.08.89.9.43-1.07.38-2.35-.12-2.84zm138.48 14.4c0-2.03.33-2.87.75-1.85.41 1.02.41 2.68 0 3.7-.42 1.02-.75.19-.75-1.85zm-8.82-3.92c0-3.7.41-4.75 1.31-3.33 1.7 2.69 1.71 6.85.02 7.9-.73.45-1.33-1.6-1.33-4.57zm-6.22-.43c0-2.4.53-4.68 1.17-5.08.65-.4.91 1.56.58 4.35-.72 6.22-1.75 6.65-1.75.73zm-100.25-1.2c.06-14.81-.53-19.71-2.25-18.74-1.47.83-1.47.64-.02-.93 1-1.08 2.11-1.68 2.46-1.32 1.37 1.38 2.47 23.58 1.16 23.58-.75 0-1.36-1.17-1.35-2.59zm116.88-3.33c0-2.85.3-4.02.68-2.59.37 1.42.37 3.76 0 5.18-.38 1.42-.68.26-.68-2.59zm16.05.86c-.06-1.56.29-2.43.78-1.94s.55 1.77.12 2.84c-.47 1.18-.82.83-.9-.9zm32.72-11.96c-2.15-4.72-2.25-8.14-.23-8.14 2.23 0 4.61 7.28 3.2 9.81-.97 1.73-1.58 1.38-2.97-1.67zm14.53 1.34c0-1.25 1.52-2.08 3.79-2.08 4.27 0 3.75 2.19-.8 3.38-1.95.51-2.99.06-2.99-1.3zm0-5.79c0-2.31.13-2.37 5.55-2.94 3.63-.38 4.43 1.35 1.48 3.19-3.42 2.13-7.03 2.01-7.03-.25zm-190.71-2.21c0-2.04.34-2.87.75-1.85s.41 2.68 0 3.7-.75.18-.75-1.85zm85.62-1.57c0-.86-.74-1.11-1.64-.55-1.12.69-1.3-.09-.55-2.51.59-1.93 1.28-3.75 1.54-4.03.87-.99 3.61 1.44 3.59 3.19-.02 1.09-.63.92-1.6-.45-1.22-1.71-1.37-1.29-.69 1.85.49 2.24.54 4.07.12 4.07s-.77-.71-.77-1.57zm17.07-.35c-.63-1.46-.74-3.07-.23-3.57 1.5-1.51 2.71.6 2.02 3.52-.61 2.59-.69 2.59-1.79.05zm4.58-.36c-.51-1.32-.88-3.18-.83-4.13.05-.96.73-.14 1.51 1.81s1.15 3.81.83 4.14c-.33.32-1.01-.5-1.51-1.82zm9.71.48c-.97-.97-1.78-2.79-1.8-4.05-.04-1.82-.5-1.7-2.22.58-2.14 2.82-2.18 2.82-2.18-.2 0-1.82 1.2-3.38 2.96-3.84 2.11-.55 2.96-.05 2.96 1.75 0 1.39.79 3.31 1.76 4.28.96.96 1.41 2.08 1.01 2.49-.41.41-1.53-.05-2.49-1.01zm-122.91-2.15c-1.1-1.19-1.59-2.58-1.08-3.08 1.23-1.24 4.29 1.96 3.62 3.79-.3.81-1.44.49-2.54-.71zm60.62-3.38c-.1-4.09.37-6.05 1.23-5.18.81.82.87 3.56.15 6.59l-1.23 5.18zm42.39 3.88c-1.72-4.25-1.41-7.82.51-5.9.88.88 1.37 3.18 1.09 5.11-.44 3.08-.64 3.17-1.6.79zm28.51-.7c0-1.46-.72-3.37-1.58-4.24-1.12-1.12-.91-1.84.74-2.47 1.83-.7 2.32.19 2.32 4.24 0 2.83-.34 5.14-.74 5.14-.41 0-.74-1.2-.74-2.67zm11.22.24c-.51-1.34-.58-2.79-.16-3.21.43-.43.78.07.78 1.11s.88 1.54 1.97 1.13c1.09-.42 1.97.17 1.97 1.32 0 2.88-3.42 2.61-4.56-.35zm-70.83.05c-.6-.59-1.04-2.8-.99-4.9l.1-3.82 1.42 3.57c1.54 3.85 1.23 6.91-.53 5.15zm6.32-2.8c0-2.04.67-3.7 1.48-3.7s1.48 1.66 1.48 3.7c0 2.03-.67 3.7-1.48 3.7s-1.48-1.67-1.48-3.7zm6.58 2.09c-.55-.89-.25-2.35.65-3.26 1.21-1.21 1.65-.78 1.65 1.61 0 3.57-.77 4.13-2.3 1.65zm13-2.83c0-2.85.31-4.02.68-2.59.37 1.42.37 3.75 0 5.18-.37 1.42-.68.26-.68-2.59zm98.37 2.51c.45-.72-.05-2.93-1.11-4.9-1.39-2.6-1.47-4.04-.3-5.21 1.17-1.18 2.27-.37 3.97 2.91 3.14 6.09 2.97 8.99-.51 8.73-1.58-.12-2.5-.81-2.05-1.53zm-130.29-.54c-1.4-1.4-1.22-6.09.27-7.02.7-.42 1.32 1.2 1.39 3.62.13 4.62-.06 5-1.66 3.4zm70.17-.86c.06-1.02.61-3.15 1.23-4.73 1.08-2.75 1.17-2.74 1.98.37.47 1.78.21 3.25-.58 3.25s-1.02.66-.51 1.48c.5.81.21 1.48-.66 1.48-.86 0-1.52-.84-1.46-1.85zm-11.95-1.85c0-1.22.27-2.22.59-2.22s.96 1 1.43 2.22.21 2.22-.58 2.22-1.44-1-1.44-2.22zm-72.55-2.1c-.02-2.05-.2-2.07-1.45-.12-.79 1.22-1.45 1.77-1.46 1.23-.01-.55-.4-1.96-.85-3.14-.56-1.45.39-2.39 2.89-2.87 2.37-.45 4 .06 4.52 1.42 1.41 3.67.89 5.82-1.4 5.82-1.22 0-2.23-1.05-2.25-2.34zm-9.58-.58c-.62-1.46-.5-4.09.27-5.82 1.86-4.17 3.34-.42 1.89 4.8-.9 3.25-1.16 3.38-2.16 1.02zm102.23-.53c-.52-1.36-.26-3.16.58-4 1.05-1.05 1.53-1.01 1.53.13 0 .91.4 2.71.9 4 .49 1.28.23 2.34-.59 2.34-.81 0-1.9-1.11-2.42-2.47zm11.82-1.54c-.8-2.11-.63-2.28.83-.83 1.01 1.01 1.47 2.2 1.01 2.66-.45.45-1.28-.37-1.84-1.83zm-5.27-1.26c0-1.27.66-1.9 1.48-1.39.81.5 1.48 1.54 1.48 2.3 0 .77-.67 1.4-1.48 1.4-.82 0-1.48-1.04-1.48-2.31zm-137-11.26c-1.3-4.12.63-8.47 3.66-8.24 2.47.19 3.02 3.39 1.76 10.09-.38 2.06-4.63.61-5.42-1.85zm12.66.98c0-1.22.65-2.22 1.44-2.22s1.05 1 .58 2.22c-.47 1.23-1.11 2.23-1.43 2.23s-.59-1-.59-2.23zm-4.31-.74c-.05-1.22.56-3.21 1.35-4.44 1.75-2.7 1.75-.36 0 3.7-.84 1.96-1.3 2.21-1.35.74zm103.66-7.66c-1.96-3.15-2.09-3.17-4.06-.47-1.97 2.69-2.04 2.68-2.04-.26 0-2.46-.72-2.9-3.77-2.31-3.51.67-3.7.41-2.75-3.54 1.23-5.11 2.26-6.39 3.15-3.89.36 1.02 1.36 1.85 2.22 1.85s2.44 1.17 3.51 2.59c1.78 2.38 1.87 2.33 1.14-.57-.44-1.74.03-3.67 1.04-4.3 1.17-.72 1.47-.53.81.53-.56.92.04 3.73 1.34 6.25 2.82 5.44 2.34 8.8-.59 4.12zm-23.86.21c0-.93-2.91-1.3-7.4-.95l-7.4.59.05-4.61.06-4.6 2.19 3.7c2.14 3.63 2.17 3.59 1.48-2.22-.39-3.25-.32-4.61.15-3.02.75 2.58 1.08 2.41 2.91-1.48l2.07-4.38-.72 5.18c-.66 4.74-.57 4.91 1.11 1.92 1.06-1.89 2.56-2.82 3.54-2.21 1.73 1.06 4.28 13.61 2.77 13.61-.44 0-.81-.69-.81-1.53zm7.52-.56c-.06-1.56.29-2.44.78-1.95.49.5.54 1.77.11 2.84-.47 1.18-.82.83-.89-.89zm23.8-.87c0-2.03.34-2.86.75-1.85.41 1.02.41 2.69 0 3.7-.41 1.02-.75.19-.75-1.85zm-62.42-2.59c-.01-1.42-.39-3.97-.85-5.67-.54-2-.13-3.08 1.15-3.08 1.39 0 1.81 1.66 1.43 5.67-.55 5.77-1.69 7.8-1.73 3.08zm9.45.42c-.45-1.19-.15-4.02.67-6.29 1.44-3.94 1.51-3.85 1.62 2.17.12 6.41-.78 8.04-2.29 4.12zm23.94-2c-.6-2.71-.69-5.32-.21-5.8.49-.48.95.73 1.03 2.7l.15 3.57 1.18-3.7c.96-2.97 1.2-3.12 1.23-.74.02 1.63-.48 4.3-1.12 5.92-1.02 2.58-1.31 2.32-2.26-1.95zm31.9 2.32c.08-1.01.69-3.51 1.35-5.55 1.02-3.15 1.16-2.88.96 1.85-.13 3.05-.73 5.55-1.34 5.55s-1.05-.83-.97-1.85zm6.07-5.03c0-8.2 2.91-10.23 5.2-3.64 2.48 7.12 2.42 7.42-1.28 6.45-2.19-.57-2.86-.29-2.14.88.59.94.42 1.71-.36 1.71s-1.42-2.43-1.42-5.4zm-91.95-.71c-.06-1.32 1.05-3.32 2.48-4.44 2.25-1.76 2.37-1.74.94.19-.91 1.22-2.03 3.22-2.48 4.44-.69 1.86-.84 1.83-.94-.19zm-5.06-.91c-.53-.85.35-3.12 1.94-5.03 2.15-2.58 2.92-2.89 2.96-1.18.07 3.31-3.72 8.12-4.9 6.21zm108.98-1.49c.22-1.42.86-3.31 1.41-4.2.56-.89-.3-4.05-1.89-7.03-1.6-2.97-2.87-6.58-2.84-8 .04-1.64 1.05-.74 2.74 2.43 1.85 3.46 3.03 4.45 3.82 3.17.91-1.46 1.42-1.43 2.42.15.94 1.48 1.28 1.52 1.3.16.01-1.02.57-1.85 1.25-1.85 2.55 0 .64 6.36-2.67 8.85-3.31 2.5-3.33 2.66-.63 4.18 2.39 1.35 2.5 1.88.74 3.53-1.49 1.4-1.77 1.43-1.02.09.65-1.15.13-1.85-1.35-1.85-1.32 0-1.99.67-1.48 1.48.5.82.21 1.48-.65 1.48-.85 0-1.37-1.16-1.15-2.59zm-6.32-5.18c.02-2.69.3-2.9 1.46-1.11 1.85 2.87 1.85 4.44 0 4.44-.82 0-1.47-1.5-1.46-3.33zm28.33.37c0-2.03.34-2.87.75-1.85s.41 2.68 0 3.7-.75.19-.75-1.85zm-60.8-.61c-.06-1.56.29-2.44.78-1.95s.54 1.77.11 2.84c-.47 1.18-.82.83-.89-.89zm57.84-8.27c0-2.03.34-2.87.75-1.85s.41 2.68 0 3.7-.75.19-.75-1.85zm-155.15-11.2c-.49-1.28-.1-3.11.87-4.07 1.37-1.35 1.52-1.11.69 1.08-.75 1.97-.55 2.51.63 1.78 1.12-.7 1.41-.27.84 1.23-1.12 2.91-1.91 2.91-3.03-.02zm-249.17-30.62c0-.41.999-1.57 2.22-2.58 1.221-1.02 2.221-1.51 2.221-1.11 0 .41-1 1.57-2.221 2.59-1.221 1.01-2.22 1.51-2.22 1.1zm263.84-146.95c-7.6-2.4-17.32-9.09-19.77-13.62-.99-1.82-3.03-3.695-4.54-4.174-1.51-.48-2.41-1.414-2-2.077.41-.664-.27-2.055-1.52-3.091-1.25-1.037-1.94-2.756-1.53-3.821s.1-2.33-.67-2.811c-2.68-1.652-1.42-3.382 1.91-2.626 1.85.42-.05-1.45-4.28-4.209-5.52-3.599-9.7-8.19-15.17-16.676-8.21-12.72-9.1-15.673-4.69-15.673 3.53 0 4.74 1.705 3.1 4.359-.79 1.283.29 4.475 3.02 8.922 6.19 10.054 9.18 12.33 15.27 11.619 4.02-.469 5.31-.017 5.85 2.042.54 2.067 1.65 2.451 5.11 1.76 3.99-.798 4.91-.191 9.39 6.183 2.74 3.887 8.3 10.573 12.37 14.858 10.37 10.915 11 12.175 8.52 17.155-1.14 2.28-2.52 4.08-3.07 4s-3.84-1.03-7.3-2.12zm5.55-5.75c0-1.15.84-2.48 1.85-2.94 1.02-.47.36-.48-1.48-.03-2.45.61-3.33.18-3.33-1.64 0-1.35-1.83-4.23-4.07-6.388-2.24-2.159-5.94-6.422-8.22-9.475-2.27-3.053-5.14-5.551-6.37-5.551s-1.83-.658-1.33-1.463c.52-.839-.07-1.087-1.39-.582-1.34.512-2.3.092-2.3-1.004 0-1.037-.32-1.56-.72-1.162-1.38 1.38 4.71 16.122 8.26 19.986 3.66 3.989 15.79 12.349 17.91 12.349.66 0 1.19-.94 1.19-2.1zm-39.31-51.872c-5.84-8.542-10.79-12.267-17.7-13.303-5.96-.893-6.85-1.52-7.61-5.353-.48-2.388-1.52-4.342-2.3-4.342-2.2 0-9.97-7.81-9.12-9.177.41-.666-1.29-2.371-3.79-3.788s-4.23-3.409-3.84-4.427c.38-1.017-.06-1.85-.98-1.85-1.99 0-10.08-8.7635-10.08-10.924 0-.8775.75-.7659 1.78.2671 3.18 3.1844 6.86 2.0622 7.52-2.2943.58-3.7886.64-3.7373.84.7401.13 2.7375 1.02 4.8146 2.08 4.8199 1.01.0052 3 2.0462 4.42 4.5362s3.18 4.159 3.9 3.708c.73-.451 1.69.572 2.14 2.273.44 1.701 1.42 2.714 2.17 2.25.75-.463 2.13.839 3.07 2.895.93 2.056 2.34 3.34 3.13 2.853.79-.486 1.85.804 2.37 2.867s1.54 3.383 2.27 2.934c.72-.45 1.32.563 1.32 2.249 0 2.273 2.16 4.09 8.34 7.017 6.95 3.291 8.82 5.03 11.2 10.412 3.5 7.896 2.79 11.384-1.13 5.637z"/></svg>